<svg width="2645" height="2031" xmlns="http://www.w3.org/2000/svg" xmlns:xlink="http://www.w3.org/1999/xlink" xml:space="preserve" overflow="hidden"><defs><clipPath id="clip0"><rect x="980" y="311" width="2645" height="2031"/></clipPath></defs><g clip-path="url(#clip0)" transform="translate(-980 -311)"><path d="M1768.75 1649.7 1768.75 1761.02 1823.75 1761.02C1849.27 1761.02 1868.92 1756.4 1882.71 1747.16 1896.49 1737.92 1903.39 1724.06 1903.39 1705.58 1903.39 1695.32 1901.48 1686.66 1897.67 1679.62 1893.85 1672.58 1888.57 1666.86 1881.83 1662.46 1875.08 1658.06 1866.87 1654.84 1857.19 1652.78 1847.51 1650.73 1836.8 1649.7 1825.07 1649.7ZM1737.07 1622.42 1828.59 1622.42C1843.84 1622.42 1857.99 1623.89 1871.05 1626.82 1884.1 1629.76 1895.39 1634.52 1904.93 1641.12 1914.46 1647.72 1921.87 1656.3 1927.15 1666.86 1932.43 1677.42 1935.07 1690.33 1935.07 1705.58 1935.07 1717.02 1933.01 1727.44 1928.91 1736.82 1924.8 1746.21 1919.23 1754.35 1912.19 1761.24 1905.15 1768.14 1896.79 1773.64 1887.11 1777.74 1877.43 1781.85 1866.87 1784.49 1855.43 1785.66L1946.51 1933.94 1907.79 1933.94 1821.55 1788.3 1768.75 1788.3 1768.75 1933.94 1737.07 1933.94ZM1622.48 1622.42 1654.16 1622.42 1654.16 1933.94 1622.48 1933.94ZM1306.81 1622.42 1338.49 1622.42 1338.49 1757.5 1508.33 1757.5 1508.33 1622.42 1540.01 1622.42 1540.01 1933.94 1508.33 1933.94 1508.33 1786.54 1338.49 1786.54 1338.49 1933.94 1306.81 1933.94ZM1059.31 1622.42 1247.19 1622.42 1247.19 1650.58 1090.99 1650.58 1090.99 1758.38 1236.19 1758.38 1236.19 1786.54 1090.99 1786.54 1090.99 1933.94 1059.31 1933.94Z" stroke="#737679" stroke-width="6" stroke-linecap="butt" stroke-linejoin="round" stroke-miterlimit="10" stroke-opacity="1" fill="#2D3748" fill-rule="evenodd" fill-opacity="1"/><text fill="#000000" fill-opacity="0" font-family="Arial,Arial_MSFontService,sans-serif" font-size="311.52" direction="ltr" writing-mode="lr-tb" x="1059.31" y="1895">FHIR</text><path d="M1980.37 1814.7 2078.93 1814.7 2078.93 1839.78 1980.37 1839.78Z" stroke="#737679" stroke-width="6" stroke-linecap="butt" stroke-linejoin="round" stroke-miterlimit="10" stroke-opacity="1" fill="#2D3748" fill-rule="evenodd" fill-opacity="1"/><text fill="#000000" fill-opacity="0" font-family="Arial,Arial_MSFontService,sans-serif" font-size="25.08" direction="ltr" writing-mode="lr-tb" x="1980.37" y="1836.65">-</text><text fill="#FC8181" fill-opacity="1" font-family="Avenir Next,Avenir Next_MSFontService,sans-serif" font-style="normal" font-variant="normal" font-weight="400" font-stretch="normal" font-size="440" text-anchor="start" direction="ltr" writing-mode="lr-tb" unicode-bidi="normal" text-decoration="none" transform="matrix(1 0 0 1 2100.18 1934)">PYrate</text><path d="M0 0 179.838 163.304" stroke="#737679" stroke-width="10.3125" stroke-linecap="butt" stroke-linejoin="miter" stroke-miterlimit="8" stroke-opacity="1" fill="none" fill-rule="evenodd" transform="matrix(1 0 0 -1 1857 550.304)"/><path d="M0 0 128.999 153.892" stroke="#737679" stroke-width="10.3125" stroke-linecap="butt" stroke-linejoin="miter" stroke-miterlimit="8" stroke-opacity="1" fill="none" fill-rule="evenodd" transform="matrix(1 0 0 -1 1469 1061.89)"/><path d="M2040.71 1013.94 1770 992" stroke="#737679" stroke-width="10.3125" stroke-linecap="butt" stroke-linejoin="miter" stroke-miterlimit="8" stroke-opacity="1" fill="none" fill-rule="evenodd"/><path d="M1398.5 1030.97 1820.07 1445.5 2526.75 1443.06 2828.92 1291.88 2948.33 1111.44 2999.5 994.392 2997.06 950.5 2665.65 950.5 2570.62 1089.49 2246.52 1091.93 2163.67 1194.34 1725.04 1191.9 1398.5 1030.97Z" stroke="#737679" stroke-width="20.625" stroke-linecap="butt" stroke-linejoin="miter" stroke-miterlimit="8" stroke-opacity="1" fill="#2D3748" fill-rule="evenodd" fill-opacity="1"/><rect x="2464.5" y="563.5" width="19.0002" height="531" stroke="#737679" stroke-width="4.58333" stroke-linecap="butt" stroke-linejoin="miter" stroke-miterlimit="8" stroke-opacity="1" fill="#737679" fill-opacity="1"/><rect x="2037.5" y="314.5" width="18.0001" height="877" stroke="#737679" stroke-width="4.58333" stroke-linecap="butt" stroke-linejoin="miter" stroke-miterlimit="8" stroke-opacity="1" fill="#737679" fill-opacity="1"/><path d="M2392.64 589.5 2302.5 989.365 2577.78 1023.5 2626.5 596.815 2392.64 589.5Z" stroke="#FC8181" stroke-width="4.58333" stroke-linecap="butt" stroke-linejoin="miter" stroke-miterlimit="8" stroke-opacity="1" fill="#FC8181" fill-rule="evenodd" fill-opacity="1"/><path d="M1898 487 1552 935.76 1798.1 1026 1898 487Z" fill="#FC8181" fill-rule="evenodd" fill-opacity="1"/><path d="M1945.77 530 1902 721.978 2186.52 756 2223 534.86 1945.77 530Z" fill="#2D3748" fill-rule="evenodd" fill-opacity="1"/><path d="M1919.77 837 1876 1028.98 2160.52 1063 2197 841.86 1919.77 837Z" fill="#2D3748" fill-rule="evenodd" fill-opacity="1"/><rect x="2055.5" y="314.5" width="124" height="72.9999" stroke="#000000" stroke-width="4.58333" stroke-linecap="butt" stroke-linejoin="miter" stroke-miterlimit="8" stroke-opacity="1" fill="#000000" fill-opacity="1"/></g></svg>
