<svg width="1669" height="1146" xmlns="http://www.w3.org/2000/svg" xmlns:xlink="http://www.w3.org/1999/xlink" xml:space="preserve" overflow="hidden"><defs><clipPath id="clip0"><rect x="1342" y="311" width="1669" height="1146"/></clipPath></defs><g clip-path="url(#clip0)" transform="translate(-1342 -311)"><path d="M0 0 179.838 163.304" stroke="#737679" stroke-width="10.3125" stroke-linecap="butt" stroke-linejoin="miter" stroke-miterlimit="8" stroke-opacity="1" fill="none" fill-rule="evenodd" transform="matrix(1 0 0 -1 1857 550.304)"/><path d="M0 0 128.999 153.892" stroke="#737679" stroke-width="10.3125" stroke-linecap="butt" stroke-linejoin="miter" stroke-miterlimit="8" stroke-opacity="1" fill="none" fill-rule="evenodd" transform="matrix(1 0 0 -1 1469 1061.89)"/><path d="M2040.71 1013.94 1770 992" stroke="#737679" stroke-width="10.3125" stroke-linecap="butt" stroke-linejoin="miter" stroke-miterlimit="8" stroke-opacity="1" fill="none" fill-rule="evenodd"/><path d="M1398.5 1030.97 1820.07 1445.5 2526.75 1443.06 2828.92 1291.88 2948.33 1111.44 2999.5 994.392 2997.06 950.5 2665.65 950.5 2570.62 1089.49 2246.52 1091.93 2163.67 1194.34 1725.04 1191.9 1398.5 1030.97Z" stroke="#737679" stroke-width="20.625" stroke-linecap="butt" stroke-linejoin="miter" stroke-miterlimit="8" stroke-opacity="1" fill="#2D3748" fill-rule="evenodd" fill-opacity="1"/><rect x="2464.5" y="563.5" width="19.0002" height="531" stroke="#737679" stroke-width="4.58333" stroke-linecap="butt" stroke-linejoin="miter" stroke-miterlimit="8" stroke-opacity="1" fill="#737679" fill-opacity="1"/><rect x="2037.5" y="314.5" width="18.0001" height="877" stroke="#737679" stroke-width="4.58333" stroke-linecap="butt" stroke-linejoin="miter" stroke-miterlimit="8" stroke-opacity="1" fill="#737679" fill-opacity="1"/><path d="M2392.64 589.5 2302.5 989.365 2577.78 1023.5 2626.5 596.815 2392.64 589.5Z" stroke="#FC8181" stroke-width="4.58333" stroke-linecap="butt" stroke-linejoin="miter" stroke-miterlimit="8" stroke-opacity="1" fill="#FC8181" fill-rule="evenodd" fill-opacity="1"/><path d="M1898 487 1552 935.76 1798.1 1026 1898 487Z" fill="#FC8181" fill-rule="evenodd" fill-opacity="1"/><path d="M1946.27 530.5 1902.5 722.479 2187.02 756.5 2223.5 535.36 1946.27 530.5Z" stroke="#737679" stroke-width="9.16667" stroke-linecap="butt" stroke-linejoin="miter" stroke-miterlimit="8" stroke-opacity="1" fill="#2D3748" fill-rule="evenodd" fill-opacity="1"/><path d="M1920.27 837.5 1876.5 1029.48 2161.02 1063.5 2197.5 842.36 1920.27 837.5Z" stroke="#737679" stroke-width="9.16667" stroke-linecap="butt" stroke-linejoin="miter" stroke-miterlimit="8" stroke-opacity="1" fill="#2D3748" fill-rule="evenodd" fill-opacity="1"/><rect x="2055" y="314" width="124" height="73.0002" fill="#FC8181" fill-opacity="1"/><text fill="#FFFFFF" fill-opacity="1" font-family="Avenir Next,Avenir Next_MSFontService,sans-serif" font-style="normal" font-variant="normal" font-weight="400" font-stretch="normal" font-size="92" text-anchor="start" direction="ltr" writing-mode="lr-tb" unicode-bidi="normal" text-decoration="none" transform="matrix(1 0 0 1 2316.72 1217)">FHIR<tspan fill="#FFFFFF" fill-opacity="1" font-family="Avenir Next,Avenir Next_MSFontService,sans-serif" font-style="normal" font-variant="normal" font-weight="400" font-stretch="normal" font-size="92" text-anchor="start" direction="ltr" writing-mode="lr-tb" unicode-bidi="normal" text-decoration="none" x="196.511" y="0">-</tspan><tspan fill="#FC8181" fill-opacity="1" font-family="Avenir Next,Avenir Next_MSFontService,sans-serif" font-style="normal" font-variant="normal" font-weight="400" font-stretch="normal" font-size="92" text-anchor="start" direction="ltr" writing-mode="lr-tb" unicode-bidi="normal" text-decoration="none" x="225.729" y="0">PYrate</tspan></text></g></svg>
