<svg width="4286" height="1435" xmlns="http://www.w3.org/2000/svg" xmlns:xlink="http://www.w3.org/1999/xlink" xml:space="preserve" overflow="hidden"><defs><clipPath id="clip0"><rect x="36" y="522" width="4286" height="1435"/></clipPath></defs><g clip-path="url(#clip0)" transform="translate(-36 -522)"><rect x="122.5" y="644.5" width="429" height="30.9999" stroke="#737679" stroke-width="4.58333" stroke-linecap="butt" stroke-linejoin="miter" stroke-miterlimit="8" stroke-opacity="1" fill="#2D3748" fill-opacity="1"/><rect x="122.5" y="714.5" width="429" height="29.9999" stroke="#737679" stroke-width="4.58333" stroke-linecap="butt" stroke-linejoin="miter" stroke-miterlimit="8" stroke-opacity="1" fill="#2D3748" fill-opacity="1"/><rect x="122.5" y="783.5" width="429" height="30.9999" stroke="#737679" stroke-width="4.58333" stroke-linecap="butt" stroke-linejoin="miter" stroke-miterlimit="8" stroke-opacity="1" fill="#2D3748" fill-opacity="1"/><rect x="122.5" y="903.5" width="857" height="31.0003" stroke="#737679" stroke-width="4.58333" stroke-linecap="butt" stroke-linejoin="miter" stroke-miterlimit="8" stroke-opacity="1" fill="#2D3748" fill-opacity="1"/><rect x="122.5" y="984.5" width="857" height="29.9999" stroke="#737679" stroke-width="4.58333" stroke-linecap="butt" stroke-linejoin="miter" stroke-miterlimit="8" stroke-opacity="1" fill="#2D3748" fill-opacity="1"/><rect x="122.5" y="1065.5" width="857" height="29.9999" stroke="#737679" stroke-width="4.58333" stroke-linecap="butt" stroke-linejoin="miter" stroke-miterlimit="8" stroke-opacity="1" fill="#2D3748" fill-opacity="1"/><rect x="122.5" y="1145.5" width="857" height="31.0002" stroke="#737679" stroke-width="4.58333" stroke-linecap="butt" stroke-linejoin="miter" stroke-miterlimit="8" stroke-opacity="1" fill="#2D3748" fill-opacity="1"/><rect x="122.5" y="1226.5" width="857" height="29.9999" stroke="#737679" stroke-width="4.58333" stroke-linecap="butt" stroke-linejoin="miter" stroke-miterlimit="8" stroke-opacity="1" fill="#2D3748" fill-opacity="1"/><rect x="122.5" y="1306.5" width="857" height="30.9999" stroke="#737679" stroke-width="4.58333" stroke-linecap="butt" stroke-linejoin="miter" stroke-miterlimit="8" stroke-opacity="1" fill="#2D3748" fill-opacity="1"/><rect x="122.5" y="1388.5" width="857" height="30.9999" stroke="#737679" stroke-width="4.58333" stroke-linecap="butt" stroke-linejoin="miter" stroke-miterlimit="8" stroke-opacity="1" fill="#2D3748" fill-opacity="1"/><rect x="122.5" y="1470.5" width="857" height="29.9999" stroke="#737679" stroke-width="4.58333" stroke-linecap="butt" stroke-linejoin="miter" stroke-miterlimit="8" stroke-opacity="1" fill="#2D3748" fill-opacity="1"/><rect x="122.5" y="1603.5" width="429" height="30.9999" stroke="#737679" stroke-width="4.58333" stroke-linecap="butt" stroke-linejoin="miter" stroke-miterlimit="8" stroke-opacity="1" fill="#2D3748" fill-opacity="1"/><path d="M0.0281487-5.15617 270.671-3.67867 270.615 6.63367-0.0281487 5.15617ZM265.571-14.0192 296.424 1.61824 265.402 16.9179Z" fill="#2D3748" fill-rule="nonzero" fill-opacity="1" transform="matrix(1 0 0 -1 1051 1208.62)"/><rect x="1433.5" y="846.5" width="857" height="29.9999" stroke="#737679" stroke-width="4.58333" stroke-linecap="butt" stroke-linejoin="miter" stroke-miterlimit="8" stroke-opacity="1" fill="#2D3748" fill-opacity="1"/><rect x="1438.5" y="1577.5" width="857" height="30.9999" stroke="#737679" stroke-width="4.58333" stroke-linecap="butt" stroke-linejoin="miter" stroke-miterlimit="8" stroke-opacity="1" fill="#2D3748" fill-opacity="1"/><path d="M2307.14 894.239 2315.45 894.239 2315.45 902.547C2315.45 905.6 2314.91 908.066 2313.83 909.943 2312.75 911.821 2311.03 913.273 2308.68 914.3L2306.66 911.18C2308.2 910.504 2309.33 909.511 2310.06 908.201 2310.79 906.89 2311.2 905.006 2311.28 902.547L2307.14 902.547Z" stroke="#737679" stroke-width="2" stroke-linecap="butt" stroke-linejoin="round" stroke-miterlimit="10" stroke-opacity="1" fill="#2D3748" fill-rule="evenodd" fill-opacity="1"/><text fill="#000000" fill-opacity="0" font-family="Arial,Arial_MSFontService,sans-serif" font-size="20.061" direction="ltr" writing-mode="lr-tb" x="2306.66" y="911.793">,</text><path d="M1841.5 1106C1841.5 1091.92 1852.92 1080.5 1867 1080.5 1881.08 1080.5 1892.5 1091.92 1892.5 1106 1892.5 1120.08 1881.08 1131.5 1867 1131.5 1852.92 1131.5 1841.5 1120.08 1841.5 1106Z" stroke="#737679" stroke-width="4.58333" stroke-linecap="butt" stroke-linejoin="miter" stroke-miterlimit="8" stroke-opacity="1" fill="#2D3748" fill-rule="evenodd" fill-opacity="1"/><path d="M1841.5 1202C1841.5 1187.92 1852.92 1176.5 1867 1176.5 1881.08 1176.5 1892.5 1187.92 1892.5 1202 1892.5 1216.08 1881.08 1227.5 1867 1227.5 1852.92 1227.5 1841.5 1216.08 1841.5 1202Z" stroke="#737679" stroke-width="4.58333" stroke-linecap="butt" stroke-linejoin="miter" stroke-miterlimit="8" stroke-opacity="1" fill="#2D3748" fill-rule="evenodd" fill-opacity="1"/><path d="M1841.5 1298C1841.5 1283.92 1852.92 1272.5 1867 1272.5 1881.08 1272.5 1892.5 1283.92 1892.5 1298 1892.5 1312.08 1881.08 1323.5 1867 1323.5 1852.92 1323.5 1841.5 1312.08 1841.5 1298Z" stroke="#737679" stroke-width="4.58333" stroke-linecap="butt" stroke-linejoin="miter" stroke-miterlimit="8" stroke-opacity="1" fill="#2D3748" fill-rule="evenodd" fill-opacity="1"/><path d="M3000.9 1872.79C2998.85 1872.79 2997.03 1873.16 2995.42 1873.89 2993.82 1874.62 2992.47 1875.59 2991.37 1876.81 2990.28 1878.02 2989.44 1879.43 2988.85 1881.04 2988.27 1882.65 2987.98 1884.35 2987.98 1886.15 2987.98 1887.95 2988.27 1889.65 2988.85 1891.26 2989.44 1892.87 2990.28 1894.28 2991.37 1895.49 2992.47 1896.71 2993.82 1897.67 2995.42 1898.38 2997.03 1899.08 2998.85 1899.44 3000.9 1899.44 3002.8 1899.44 3004.55 1899.12 3006.15 1898.49 3007.76 1897.85 3009.15 1896.95 3010.31 1895.79 3011.48 1894.62 3012.39 1893.22 3013.05 1891.59 3013.71 1889.96 3014.04 1888.14 3014.04 1886.15 3014.04 1884.35 3013.71 1882.65 3013.05 1881.04 3012.39 1879.43 3011.48 1878.02 3010.31 1876.81 3009.15 1875.59 3007.76 1874.62 3006.15 1873.89 3004.55 1873.16 3002.8 1872.79 3000.9 1872.79ZM2958.13 1872.79C2956.47 1872.79 2954.94 1873.09 2953.53 1873.7 2952.11 1874.31 2950.87 1875.14 2949.8 1876.19 2948.73 1877.23 2947.88 1878.42 2947.25 1879.76 2946.62 1881.1 2946.25 1882.5 2946.15 1883.96L2969.44 1883.96C2969.29 1880.75 2968.26 1878.08 2966.34 1875.97 2964.42 1873.85 2961.68 1872.79 2958.13 1872.79ZM3070.55 1869.51 3076.9 1869.51 3086.25 1882.5 3095.59 1869.51 3101.58 1869.51 3089.17 1885.78 3102.74 1903.67 3096.32 1903.67 3086.17 1889.43 3075.73 1903.67 3069.75 1903.67 3083.18 1886ZM3000.39 1868.63C3002.87 1868.63 3005.3 1869.21 3007.69 1870.38 3010.07 1871.55 3011.94 1873.23 3013.31 1875.42L3013.45 1875.42 3013.45 1869.51 3018.42 1869.51 3018.42 1903.38C3018.42 1905.23 3018.16 1907.2 3017.65 1909.29 3017.14 1911.38 3016.19 1913.31 3014.8 1915.06 3013.42 1916.81 3011.53 1918.27 3009.15 1919.44 3006.76 1920.61 3003.67 1921.19 2999.88 1921.19 2996.71 1921.19 2993.69 1920.58 2990.82 1919.36 2987.95 1918.15 2985.49 1916.47 2983.45 1914.33L2987.03 1910.53C2988.39 1912.28 2990.25 1913.77 2992.61 1914.98 2994.97 1916.2 2997.47 1916.81 3000.09 1916.81 3002.53 1916.81 3004.6 1916.46 3006.3 1915.75 3008 1915.05 3009.38 1914.08 3010.42 1912.87 3011.47 1911.65 3012.24 1910.23 3012.72 1908.6 3013.21 1906.97 3013.45 1905.23 3013.45 1903.38L3013.45 1896.95 3013.31 1896.95C3011.99 1899.09 3010.13 1900.75 3007.72 1901.92 3005.31 1903.09 3002.87 1903.67 3000.39 1903.67 2997.71 1903.67 2995.29 1903.23 2993.12 1902.36 2990.96 1901.48 2989.11 1900.28 2987.57 1898.74 2986.04 1897.21 2984.85 1895.37 2984 1893.23 2983.15 1891.09 2982.72 1888.78 2982.72 1886.3 2982.72 1883.86 2983.15 1881.57 2984 1879.43 2984.85 1877.29 2986.04 1875.42 2987.57 1873.81 2989.11 1872.21 2990.96 1870.94 2993.12 1870.02 2995.29 1869.09 2997.71 1868.63 3000.39 1868.63ZM2958.13 1868.63C2960.8 1868.63 2963.16 1869.08 2965.21 1869.98 2967.25 1870.88 2968.95 1872.1 2970.32 1873.63 2971.68 1875.16 2972.71 1876.95 2973.42 1879 2974.12 1881.04 2974.48 1883.23 2974.48 1885.57 2974.48 1885.91 2974.48 1886.27 2974.48 1886.66 2974.48 1887.05 2974.45 1887.46 2974.4 1887.9L2946.08 1887.9C2946.13 1889.6 2946.47 1891.21 2947.1 1892.72 2947.73 1894.23 2948.61 1895.54 2949.73 1896.66 2950.85 1897.78 2952.16 1898.67 2953.67 1899.33 2955.18 1899.98 2956.81 1900.31 2958.56 1900.31 2961.14 1900.31 2963.37 1899.72 2965.24 1898.52 2967.12 1897.33 2968.54 1895.96 2969.51 1894.4L2973.24 1897.32C2971.19 1899.9 2968.94 1901.75 2966.48 1902.87 2964.03 1903.99 2961.39 1904.55 2958.56 1904.55 2956.03 1904.55 2953.68 1904.1 2951.52 1903.2 2949.35 1902.29 2947.49 1901.04 2945.93 1899.44 2944.38 1897.83 2943.15 1895.93 2942.25 1893.74 2941.35 1891.55 2940.9 1889.17 2940.9 1886.59 2940.9 1884.01 2941.34 1881.62 2942.21 1879.43 2943.09 1877.24 2944.3 1875.35 2945.86 1873.74 2947.42 1872.13 2949.24 1870.88 2951.34 1869.98 2953.43 1869.08 2955.69 1868.63 2958.13 1868.63ZM2905.68 1856.51 2905.68 1874.98 2914.81 1874.98C2919.04 1874.98 2922.3 1874.21 2924.59 1872.68 2926.88 1871.15 2928.02 1868.85 2928.02 1865.78 2928.02 1864.08 2927.71 1862.64 2927.07 1861.48 2926.44 1860.31 2925.56 1859.36 2924.44 1858.63 2923.33 1857.9 2921.96 1857.36 2920.36 1857.02 2918.75 1856.68 2916.97 1856.51 2915.03 1856.51ZM3031.9 1851.99 3063.95 1851.99 3063.95 1856.66 3037.16 1856.66 3037.16 1874.4 3062.2 1874.4 3062.2 1879.07 3037.16 1879.07 3037.16 1899 3064.82 1899 3064.82 1903.67 3031.9 1903.67ZM2900.43 1851.99 2915.61 1851.99C2918.14 1851.99 2920.49 1852.23 2922.66 1852.72 2924.82 1853.2 2926.7 1853.99 2928.28 1855.09 2929.86 1856.18 2931.09 1857.61 2931.96 1859.36 2932.84 1861.11 2933.28 1863.25 2933.28 1865.78 2933.28 1867.68 2932.94 1869.41 2932.26 1870.97 2931.57 1872.52 2930.65 1873.87 2929.48 1875.02 2928.31 1876.16 2926.93 1877.07 2925.32 1877.75 2923.71 1878.44 2921.96 1878.87 2920.06 1879.07L2935.18 1903.67 2928.75 1903.67 2914.44 1879.51 2905.68 1879.51 2905.68 1903.67 2900.43 1903.67Z" stroke="#737679" stroke-width="1" stroke-linecap="butt" stroke-linejoin="round" stroke-miterlimit="10" stroke-opacity="1" fill="#2D3748" fill-rule="evenodd" fill-opacity="1"/><text fill="#000000" fill-opacity="0" font-family="Arial,Arial_MSFontService,sans-serif" font-size="69.204" direction="ltr" writing-mode="lr-tb" x="2900.43" y="1912.54">RegEx</text><path d="M3213.82 1886.59C3211.77 1886.59 3209.72 1886.67 3207.65 1886.84 3205.58 1887.01 3203.71 1887.35 3202.03 1887.87 3200.35 1888.38 3198.98 1889.12 3197.91 1890.09 3196.83 1891.06 3196.3 1892.35 3196.3 1893.96 3196.3 1895.18 3196.53 1896.2 3196.99 1897.03 3197.45 1897.85 3198.08 1898.52 3198.85 1899.03 3199.63 1899.55 3200.5 1899.91 3201.45 1900.13 3202.39 1900.35 3203.36 1900.46 3204.33 1900.46 3206.08 1900.46 3207.64 1900.15 3209 1899.55 3210.36 1898.94 3211.51 1898.11 3212.43 1897.06 3213.36 1896.02 3214.06 1894.81 3214.55 1893.45 3215.04 1892.09 3215.28 1890.65 3215.28 1889.14L3215.28 1886.59ZM3412.25 1872.79C3410.21 1872.79 3408.38 1873.16 3406.78 1873.89 3405.17 1874.62 3403.82 1875.59 3402.72 1876.81 3401.63 1878.02 3400.79 1879.43 3400.21 1881.04 3399.62 1882.65 3399.33 1884.35 3399.33 1886.15 3399.33 1887.95 3399.62 1889.65 3400.21 1891.26 3400.79 1892.87 3401.63 1894.28 3402.72 1895.49 3403.82 1896.71 3405.17 1897.67 3406.78 1898.38 3408.38 1899.08 3410.21 1899.44 3412.25 1899.44 3414.15 1899.44 3415.9 1899.12 3417.51 1898.49 3419.11 1897.85 3420.5 1896.95 3421.67 1895.79 3422.84 1894.62 3423.75 1893.22 3424.41 1891.59 3425.06 1889.96 3425.39 1888.14 3425.39 1886.15 3425.39 1884.35 3425.06 1882.65 3424.41 1881.04 3423.75 1879.43 3422.84 1878.02 3421.67 1876.81 3420.5 1875.59 3419.11 1874.62 3417.51 1873.89 3415.9 1873.16 3414.15 1872.79 3412.25 1872.79ZM3335.9 1869.51 3340.86 1869.51 3340.86 1903.67 3335.9 1903.67ZM3411.74 1868.63C3414.22 1868.63 3416.66 1869.21 3419.04 1870.38 3421.43 1871.55 3423.3 1873.23 3424.66 1875.42L3424.81 1875.42 3424.81 1869.51 3429.77 1869.51 3429.77 1903.38C3429.77 1905.23 3429.52 1907.2 3429 1909.29 3428.49 1911.38 3427.54 1913.31 3426.16 1915.06 3424.77 1916.81 3422.89 1918.27 3420.5 1919.44 3418.12 1920.61 3415.03 1921.19 3411.23 1921.19 3408.07 1921.19 3405.05 1920.58 3402.18 1919.36 3399.31 1918.15 3396.85 1916.47 3394.8 1914.33L3398.38 1910.53C3399.74 1912.28 3401.61 1913.77 3403.97 1914.98 3406.33 1916.2 3408.82 1916.81 3411.45 1916.81 3413.88 1916.81 3415.95 1916.46 3417.65 1915.75 3419.36 1915.05 3420.73 1914.08 3421.78 1912.87 3422.82 1911.65 3423.59 1910.23 3424.08 1908.6 3424.56 1906.97 3424.81 1905.23 3424.81 1903.38L3424.81 1896.95 3424.66 1896.95C3423.35 1899.09 3421.49 1900.75 3419.08 1901.92 3416.67 1903.09 3414.22 1903.67 3411.74 1903.67 3409.06 1903.67 3406.64 1903.23 3404.48 1902.36 3402.31 1901.48 3400.46 1900.28 3398.93 1898.74 3397.4 1897.21 3396.2 1895.37 3395.35 1893.23 3394.5 1891.09 3394.07 1888.78 3394.07 1886.3 3394.07 1883.86 3394.5 1881.57 3395.35 1879.43 3396.2 1877.29 3397.4 1875.42 3398.93 1873.81 3400.46 1872.21 3402.31 1870.94 3404.48 1870.02 3406.64 1869.09 3409.06 1868.63 3411.74 1868.63ZM3370.73 1868.63C3375.06 1868.63 3378.31 1869.92 3380.48 1872.5 3382.64 1875.08 3383.73 1878.48 3383.73 1882.72L3383.73 1903.67 3378.76 1903.67 3378.76 1884.76C3378.76 1882.96 3378.62 1881.33 3378.32 1879.87 3378.03 1878.41 3377.53 1877.16 3376.83 1876.11 3376.12 1875.07 3375.17 1874.25 3373.98 1873.67 3372.79 1873.08 3371.29 1872.79 3369.49 1872.79 3368.18 1872.79 3366.9 1873.06 3365.66 1873.59 3364.42 1874.13 3363.31 1874.94 3362.34 1876.04 3361.36 1877.13 3360.58 1878.52 3360 1880.2 3359.42 1881.88 3359.12 1883.86 3359.12 1886.15L3359.12 1903.67 3354.16 1903.67 3354.16 1877.02C3354.16 1876.1 3354.14 1874.91 3354.09 1873.45 3354.04 1871.99 3353.97 1870.67 3353.87 1869.51L3358.61 1869.51C3358.71 1870.43 3358.78 1871.45 3358.83 1872.57 3358.88 1873.69 3358.91 1874.62 3358.91 1875.35L3359.05 1875.35C3360.02 1873.35 3361.61 1871.73 3363.8 1870.49 3365.99 1869.25 3368.3 1868.63 3370.73 1868.63ZM3271.96 1868.63C3274.25 1868.63 3276.57 1869.13 3278.93 1870.13 3281.29 1871.12 3283.2 1872.6 3284.66 1874.54L3280.79 1877.32C3279.97 1876 3278.76 1874.92 3277.18 1874.07 3275.6 1873.22 3273.88 1872.79 3272.03 1872.79 3270.04 1872.79 3268.24 1873.14 3266.63 1873.85 3265.02 1874.55 3263.65 1875.53 3262.51 1876.77 3261.36 1878.01 3260.49 1879.47 3259.88 1881.15 3259.27 1882.83 3258.97 1884.64 3258.97 1886.59 3258.97 1888.53 3259.27 1890.33 3259.88 1891.99 3260.49 1893.64 3261.35 1895.09 3262.47 1896.33 3263.59 1897.57 3264.95 1898.55 3266.56 1899.25 3268.16 1899.96 3269.96 1900.31 3271.96 1900.31 3274.15 1900.31 3276 1899.9 3277.51 1899.07 3279.02 1898.24 3280.26 1897.17 3281.23 1895.86L3284.95 1898.63C3283.49 1900.43 3281.71 1901.87 3279.59 1902.94 3277.47 1904.01 3274.93 1904.55 3271.96 1904.55 3269.19 1904.55 3266.68 1904.1 3264.44 1903.2 3262.2 1902.29 3260.29 1901.04 3258.71 1899.44 3257.13 1897.83 3255.9 1895.93 3255.02 1893.74 3254.15 1891.55 3253.71 1889.17 3253.71 1886.59 3253.71 1884.01 3254.15 1881.62 3255.02 1879.43 3255.9 1877.24 3257.13 1875.35 3258.71 1873.74 3260.29 1872.13 3262.2 1870.88 3264.44 1869.98 3266.68 1869.08 3269.19 1868.63 3271.96 1868.63ZM3206.66 1868.63C3208.51 1868.63 3210.24 1868.89 3211.85 1869.4 3213.45 1869.91 3214.87 1870.67 3216.08 1871.7 3217.3 1872.72 3218.25 1874.01 3218.93 1875.56 3219.61 1877.12 3219.95 1878.95 3219.95 1881.04L3219.95 1896C3219.95 1897.32 3220 1898.68 3220.1 1900.09 3220.19 1901.5 3220.34 1902.7 3220.53 1903.67L3216.08 1903.67C3215.94 1902.84 3215.81 1901.94 3215.72 1900.97 3215.62 1900 3215.57 1899.05 3215.57 1898.12L3215.42 1898.12C3213.87 1900.41 3212.1 1902.05 3210.13 1903.05 3208.16 1904.05 3205.79 1904.55 3203.01 1904.55 3201.7 1904.55 3200.35 1904.36 3198.96 1904 3197.58 1903.63 3196.31 1903.03 3195.17 1902.2 3194.02 1901.37 3193.07 1900.3 3192.32 1898.98 3191.57 1897.66 3191.19 1896.05 3191.19 1894.15 3191.19 1891.51 3191.86 1889.42 3193.2 1887.88 3194.53 1886.34 3196.32 1885.2 3198.56 1884.44 3200.8 1883.68 3203.37 1883.19 3206.26 1882.98 3209.16 1882.76 3212.16 1882.65 3215.28 1882.65L3215.28 1881.56C3215.28 1878.61 3214.5 1876.41 3212.94 1874.96 3211.39 1873.52 3209.12 1872.79 3206.15 1872.79 3204.11 1872.79 3202.21 1873.16 3200.46 1873.89 3198.71 1874.62 3197.22 1875.59 3196.01 1876.81L3193.23 1873.52C3194.64 1872.11 3196.51 1870.94 3198.82 1870.02 3201.13 1869.09 3203.74 1868.63 3206.66 1868.63ZM3233.51 1859.87 3238.47 1859.87 3238.47 1869.51 3248.11 1869.51 3248.11 1873.67 3238.47 1873.67 3238.47 1893.6C3238.47 1894.86 3238.59 1895.91 3238.83 1896.73 3239.08 1897.56 3239.43 1898.21 3239.89 1898.67 3240.35 1899.13 3240.9 1899.45 3241.54 1899.62 3242.17 1899.79 3242.85 1899.87 3243.58 1899.87 3244.26 1899.87 3244.98 1899.78 3245.73 1899.58 3246.49 1899.39 3247.2 1899.12 3247.89 1898.78L3248.11 1903.09C3247.23 1903.43 3246.32 1903.68 3245.37 1903.85 3244.42 1904.02 3243.38 1904.11 3242.27 1904.11 3241.34 1904.11 3240.37 1903.99 3239.35 1903.74 3238.32 1903.5 3237.37 1903.04 3236.5 1902.36 3235.62 1901.67 3234.9 1900.75 3234.34 1899.58 3233.79 1898.41 3233.51 1896.88 3233.51 1894.98L3233.51 1873.67 3226.42 1873.67 3226.42 1869.51 3233.51 1869.51ZM3338.38 1852.86C3339.26 1852.86 3340.06 1853.19 3340.79 1853.85 3341.52 1854.5 3341.89 1855.34 3341.89 1856.37 3341.89 1857.39 3341.52 1858.23 3340.79 1858.88 3340.06 1859.54 3339.26 1859.87 3338.38 1859.87 3337.51 1859.87 3336.7 1859.54 3335.97 1858.88 3335.24 1858.23 3334.88 1857.39 3334.88 1856.37 3334.88 1855.34 3335.24 1854.5 3335.97 1853.85 3336.7 1853.19 3337.51 1852.86 3338.38 1852.86ZM3129.3 1851.99 3137.33 1851.99 3154.85 1894.76 3154.92 1894.76 3172.22 1851.99 3180.25 1851.99 3180.25 1903.67 3174.99 1903.67 3174.99 1858.77 3174.85 1858.77 3156.16 1903.67 3153.39 1903.67 3134.7 1858.77 3134.55 1858.77 3134.55 1903.67 3129.3 1903.67ZM3293 1848.48 3297.97 1848.48 3297.97 1875.13 3298.11 1875.13C3299.04 1873.13 3300.57 1871.55 3302.71 1870.38 3304.85 1869.21 3307.14 1868.63 3309.58 1868.63 3313.91 1868.63 3317.16 1869.92 3319.32 1872.5 3321.49 1875.08 3322.57 1878.48 3322.57 1882.72L3322.57 1903.67 3317.61 1903.67 3317.61 1884.76C3317.61 1882.96 3317.46 1881.33 3317.17 1879.87 3316.88 1878.41 3316.38 1877.16 3315.67 1876.11 3314.97 1875.07 3314.02 1874.25 3312.82 1873.67 3311.63 1873.08 3310.14 1872.79 3308.33 1872.79 3307.02 1872.79 3305.74 1873.06 3304.5 1873.59 3303.26 1874.13 3302.15 1874.94 3301.18 1876.04 3300.21 1877.13 3299.43 1878.52 3298.84 1880.2 3298.26 1881.88 3297.97 1883.86 3297.97 1886.15L3297.97 1903.67 3293 1903.67Z" stroke="#737679" stroke-width="1" stroke-linecap="butt" stroke-linejoin="round" stroke-miterlimit="10" stroke-opacity="1" fill="#2D3748" fill-rule="evenodd" fill-opacity="1"/><text fill="#000000" fill-opacity="0" font-family="Arial,Arial_MSFontService,sans-serif" font-size="72.708" direction="ltr" writing-mode="lr-tb" x="3129.3" y="1912.1">Matching</text><path d="M0.0275794-5.15618 276.789-3.67583 276.734 6.63652-0.0275794 5.15618ZM271.688-14.0158 302.542 1.61824 271.522 16.9213Z" fill="#2D3748" fill-rule="nonzero" fill-opacity="1" transform="matrix(1 0 0 -1 2354 1208.62)"/><rect x="2736.5" y="839.5" width="858" height="30.9999" stroke="#737679" stroke-width="4.58333" stroke-linecap="butt" stroke-linejoin="miter" stroke-miterlimit="8" stroke-opacity="1" fill="#2D3748" fill-opacity="1"/><rect x="2741.5" y="1571.5" width="858" height="29.9999" stroke="#737679" stroke-width="4.58333" stroke-linecap="butt" stroke-linejoin="miter" stroke-miterlimit="8" stroke-opacity="1" fill="#2D3748" fill-opacity="1"/><text fill="#000000" fill-opacity="1" font-family="Arial,Arial_MSFontService,sans-serif" font-style="normal" font-variant="normal" font-weight="400" font-stretch="normal" font-size="83" text-anchor="start" direction="ltr" writing-mode="lr-tb" unicode-bidi="normal" text-decoration="none" transform="matrix(1 0 0 1 3603 896)">,</text><path d="M3145.5 1099C3145.5 1084.92 3156.69 1073.5 3170.5 1073.5 3184.31 1073.5 3195.5 1084.92 3195.5 1099 3195.5 1113.08 3184.31 1124.5 3170.5 1124.5 3156.69 1124.5 3145.5 1113.08 3145.5 1099Z" stroke="#737679" stroke-width="4.58333" stroke-linecap="butt" stroke-linejoin="miter" stroke-miterlimit="8" stroke-opacity="1" fill="#2D3748" fill-rule="evenodd" fill-opacity="1"/><path d="M3145.5 1195.5C3145.5 1181.69 3156.69 1170.5 3170.5 1170.5 3184.31 1170.5 3195.5 1181.69 3195.5 1195.5 3195.5 1209.31 3184.31 1220.5 3170.5 1220.5 3156.69 1220.5 3145.5 1209.31 3145.5 1195.5Z" stroke="#737679" stroke-width="4.58333" stroke-linecap="butt" stroke-linejoin="miter" stroke-miterlimit="8" stroke-opacity="1" fill="#2D3748" fill-rule="evenodd" fill-opacity="1"/><path d="M3145.5 1292C3145.5 1277.92 3156.69 1266.5 3170.5 1266.5 3184.31 1266.5 3195.5 1277.92 3195.5 1292 3195.5 1306.08 3184.31 1317.5 3170.5 1317.5 3156.69 1317.5 3145.5 1306.08 3145.5 1292Z" stroke="#737679" stroke-width="4.58333" stroke-linecap="butt" stroke-linejoin="miter" stroke-miterlimit="8" stroke-opacity="1" fill="#2D3748" fill-rule="evenodd" fill-opacity="1"/><rect x="2818" y="823" width="262" height="62.9999" fill="#FC8181" fill-opacity="1"/><path d="M4075.85 1360.41 4124.41 1311.85 4176 1363.44 4227.59 1311.85 4276.15 1360.41 4224.56 1412 4276.15 1463.59 4227.59 1512.15 4176 1460.56 4124.41 1512.15 4075.85 1463.59 4127.44 1412Z" fill="#A49DA3" fill-rule="evenodd" fill-opacity="1"/><rect x="3260" y="1556" width="262" height="62.9999" fill="#FC8181" fill-opacity="1"/><path d="M4101.77 1048.84 4274.95 874.048 4317.04 915.751 4143.86 1090.55Z" fill="#FC8181" fill-rule="nonzero" fill-opacity="1"/><path d="M4075.38 942.729 4175.7 1040.76 4136.27 1081.11 4035.95 983.073Z" fill="#FC8181" fill-rule="nonzero" fill-opacity="1"/><text fill="#2D3748" fill-opacity="1" font-family="Avenir Next,Avenir Next_MSFontService,sans-serif" font-style="normal" font-variant="normal" font-weight="400" font-stretch="normal" font-size="55" text-anchor="start" direction="ltr" writing-mode="lr-tb" unicode-bidi="normal" text-decoration="none" transform="matrix(1 0 0 1 2378.72 1161)">Matching</text><path d="M0-5.15625 279.392-5.15625 279.392 224.657 274.236 219.501 356.089 219.501 356.089 229.814 269.08 229.814 269.08 0 274.236 5.15625 0 5.15625ZM350.932 209.189 381.87 224.657 350.932 240.126Z" fill="#2D3748" fill-rule="nonzero" fill-opacity="1" transform="matrix(1 0 0 -1 3648 1206.66)"/><text fill="#2D3748" fill-opacity="1" font-family="Avenir Next,Avenir Next_MSFontService,sans-serif" font-style="normal" font-variant="normal" font-weight="400" font-stretch="normal" font-size="55" text-anchor="start" direction="ltr" writing-mode="lr-tb" unicode-bidi="normal" text-decoration="none" transform="matrix(1 0 0 1 3667.61 1159)">Selection</text><path d="M3648 1201.84 3927.39 1201.84 3927.39 1403.43 3922.24 1398.28 4004.09 1398.28 4004.09 1408.59 3917.08 1408.59 3917.08 1207 3922.24 1212.16 3648 1212.16ZM3998.93 1387.96 4029.87 1403.43 3998.93 1418.9Z" fill="#2D3748" fill-rule="nonzero" fill-opacity="1"/><text fill="#2D3748" fill-opacity="1" font-family="Avenir Next,Avenir Next_MSFontService,sans-serif" font-style="normal" font-variant="normal" font-weight="400" font-stretch="normal" font-size="55" text-anchor="start" direction="ltr" writing-mode="lr-tb" unicode-bidi="normal" text-decoration="none" transform="matrix(1 0 0 1 1077.08 1160)">Transform</text><path d="M462.424 1893.89C460.38 1893.89 458.324 1893.98 456.256 1894.15 454.187 1894.32 452.314 1894.66 450.635 1895.17 448.956 1895.68 447.581 1896.42 446.51 1897.4 445.44 1898.37 444.904 1899.66 444.904 1901.27 444.904 1902.48 445.135 1903.51 445.598 1904.33 446.06 1905.16 446.681 1905.83 447.459 1906.34 448.238 1906.85 449.102 1907.22 450.051 1907.44 451 1907.65 451.961 1907.76 452.934 1907.76 454.686 1907.76 456.243 1907.46 457.606 1906.85 458.969 1906.24 460.112 1905.42 461.037 1904.37 461.962 1903.32 462.668 1902.12 463.154 1900.76 463.641 1899.39 463.884 1897.96 463.884 1896.45L463.884 1893.89ZM356.065 1880.1C354.021 1880.1 352.196 1880.46 350.59 1881.19 348.984 1881.92 347.633 1882.91 346.539 1884.15 345.443 1885.39 344.604 1886.85 344.02 1888.53 343.436 1890.21 343.144 1892 343.144 1893.89 343.144 1895.79 343.436 1897.58 344.02 1899.26 344.604 1900.94 345.443 1902.4 346.539 1903.64 347.633 1904.88 348.984 1905.85 350.59 1906.56 352.196 1907.27 354.021 1907.62 356.065 1907.62 357.963 1907.62 359.715 1907.27 361.321 1906.56 362.927 1905.85 364.314 1904.89 365.482 1903.68 366.65 1902.46 367.562 1901.01 368.219 1899.33 368.876 1897.65 369.205 1895.84 369.205 1893.89 369.205 1891.95 368.876 1890.13 368.219 1888.46 367.562 1886.78 366.65 1885.32 365.482 1884.08 364.314 1882.83 362.927 1881.86 361.321 1881.16 359.715 1880.45 357.963 1880.1 356.065 1880.1ZM313.293 1880.1C311.638 1880.1 310.105 1880.4 308.694 1881.01 307.283 1881.62 306.042 1882.45 304.971 1883.49 303.9 1884.54 303.049 1885.73 302.416 1887.07 301.783 1888.41 301.418 1889.81 301.321 1891.27L324.608 1891.27C324.462 1888.05 323.428 1885.39 321.506 1883.27 319.583 1881.16 316.846 1880.1 313.293 1880.1ZM387.422 1876.81 392.386 1876.81 392.386 1910.98 387.422 1910.98ZM455.27 1875.94C457.12 1875.94 458.847 1876.19 460.453 1876.7 462.059 1877.21 463.47 1877.98 464.687 1879 465.904 1880.02 466.853 1881.31 467.534 1882.87 468.216 1884.43 468.556 1886.25 468.556 1888.35L468.556 1903.31C468.556 1904.63 468.605 1905.99 468.702 1907.4 468.799 1908.81 468.945 1910 469.14 1910.98L464.687 1910.98C464.541 1910.15 464.419 1909.25 464.322 1908.28 464.225 1907.3 464.176 1906.35 464.176 1905.43L464.03 1905.43C462.473 1907.72 460.709 1909.36 458.738 1910.36 456.767 1911.35 454.394 1911.85 451.62 1911.85 450.306 1911.85 448.956 1911.67 447.569 1911.3 446.182 1910.94 444.916 1910.34 443.773 1909.51 442.629 1908.68 441.68 1907.6 440.926 1906.29 440.171 1904.97 439.794 1903.36 439.794 1901.45 439.794 1898.81 440.463 1896.73 441.802 1895.19 443.14 1893.65 444.928 1892.5 447.167 1891.75 449.406 1890.99 451.973 1890.5 454.869 1890.28 457.764 1890.06 460.769 1889.95 463.884 1889.95L463.884 1888.87C463.884 1885.92 463.105 1883.72 461.548 1882.27 459.991 1880.82 457.728 1880.1 454.759 1880.1 452.715 1880.1 450.817 1880.46 449.065 1881.19 447.313 1881.92 445.829 1882.9 444.612 1884.11L441.838 1880.83C443.25 1879.42 445.111 1878.25 447.423 1877.32 449.734 1876.4 452.35 1875.94 455.27 1875.94ZM421.451 1875.94C423.738 1875.94 426.062 1876.44 428.422 1877.43 430.782 1878.43 432.693 1879.9 434.152 1881.85L430.284 1884.62C429.456 1883.31 428.252 1882.23 426.67 1881.37 425.088 1880.52 423.373 1880.1 421.523 1880.1 419.528 1880.1 417.728 1880.45 416.121 1881.16 414.516 1881.86 413.141 1882.83 411.997 1884.08 410.853 1885.32 409.977 1886.78 409.369 1888.46 408.761 1890.13 408.457 1891.95 408.457 1893.89 408.457 1895.84 408.761 1897.64 409.369 1899.3 409.977 1900.95 410.841 1902.4 411.961 1903.64 413.08 1904.88 414.443 1905.85 416.048 1906.56 417.655 1907.27 419.455 1907.62 421.451 1907.62 423.641 1907.62 425.49 1907.2 426.999 1906.38 428.507 1905.55 429.748 1904.48 430.721 1903.17L434.444 1905.94C432.984 1907.74 431.196 1909.18 429.079 1910.25 426.962 1911.32 424.419 1911.85 421.451 1911.85 418.677 1911.85 416.17 1911.4 413.931 1910.5 411.693 1909.6 409.783 1908.35 408.201 1906.74 406.619 1905.14 405.391 1903.24 404.514 1901.05 403.638 1898.86 403.201 1896.47 403.201 1893.89 403.201 1891.31 403.638 1888.93 404.514 1886.74 405.391 1884.55 406.619 1882.65 408.201 1881.05 409.783 1879.44 411.693 1878.19 413.931 1877.29 416.17 1876.39 418.677 1875.94 421.451 1875.94ZM313.293 1875.94C315.97 1875.94 318.33 1876.39 320.374 1877.29 322.418 1878.19 324.121 1879.4 325.484 1880.94 326.847 1882.47 327.881 1884.26 328.587 1886.3 329.292 1888.35 329.645 1890.54 329.645 1892.87 329.645 1893.21 329.645 1893.58 329.645 1893.97 329.645 1894.36 329.621 1894.77 329.572 1895.21L301.248 1895.21C301.297 1896.91 301.637 1898.52 302.27 1900.03 302.903 1901.53 303.779 1902.85 304.898 1903.97 306.017 1905.09 307.331 1905.98 308.84 1906.63 310.349 1907.29 311.979 1907.62 313.731 1907.62 316.31 1907.62 318.537 1907.02 320.411 1905.83 322.284 1904.64 323.708 1903.26 324.681 1901.71L328.404 1904.63C326.36 1907.2 324.109 1909.05 321.652 1910.17 319.194 1911.29 316.554 1911.85 313.731 1911.85 311.2 1911.85 308.852 1911.4 306.687 1910.5 304.521 1909.6 302.659 1908.35 301.102 1906.74 299.545 1905.14 298.316 1903.24 297.416 1901.05 296.515 1898.86 296.065 1896.47 296.065 1893.89 296.065 1891.31 296.503 1888.93 297.379 1886.74 298.255 1884.55 299.472 1882.65 301.029 1881.05 302.586 1879.44 304.411 1878.19 306.504 1877.29 308.597 1876.39 310.86 1875.94 313.293 1875.94ZM389.904 1860.17C390.78 1860.17 391.583 1860.5 392.313 1861.15 393.043 1861.81 393.408 1862.65 393.408 1863.67 393.408 1864.69 393.043 1865.53 392.313 1866.19 391.583 1866.85 390.78 1867.18 389.904 1867.18 389.028 1867.18 388.225 1866.85 387.495 1866.19 386.765 1865.53 386.4 1864.69 386.4 1863.67 386.4 1862.65 386.765 1861.81 387.495 1861.15 388.225 1860.5 389.028 1860.17 389.904 1860.17ZM234.1 1859.29 242.13 1859.29 259.65 1902.07 259.723 1902.07 277.023 1859.29 285.053 1859.29 285.053 1910.98 279.798 1910.98 279.798 1866.08 279.651 1866.08 260.964 1910.98 258.19 1910.98 239.502 1866.08 239.356 1866.08 239.356 1910.98 234.1 1910.98ZM481.453 1855.79 486.418 1855.79 486.418 1910.98 481.453 1910.98ZM368.621 1855.79 373.585 1855.79 373.585 1910.98 368.621 1910.98 368.621 1905.21 368.475 1905.21C367.015 1907.4 365.117 1909.05 362.781 1910.17 360.445 1911.29 358.036 1911.85 355.554 1911.85 352.877 1911.85 350.456 1911.39 348.29 1910.47 346.125 1909.54 344.276 1908.28 342.742 1906.67 341.21 1905.06 340.017 1903.17 339.165 1900.98 338.314 1898.79 337.888 1896.42 337.888 1893.89 337.888 1891.36 338.314 1889 339.165 1886.81 340.017 1884.62 341.21 1882.73 342.742 1881.12 344.276 1879.51 346.125 1878.25 348.29 1877.32 350.456 1876.4 352.877 1875.94 355.554 1875.94 358.036 1875.94 360.445 1876.51 362.781 1877.65 365.117 1878.8 367.015 1880.49 368.475 1882.73L368.621 1882.73Z" stroke="#737679" stroke-width="1" stroke-linecap="butt" stroke-linejoin="round" stroke-miterlimit="10" stroke-opacity="1" fill="#2D3748" fill-rule="evenodd" fill-opacity="1"/><text fill="#000000" fill-opacity="0" font-family="Arial,Arial_MSFontService,sans-serif" font-size="56.064" direction="ltr" writing-mode="lr-tb" x="234.1" y="1904.84">Medical </text><path d="M776.783 1880.1C775.128 1880.1 773.595 1880.4 772.184 1881.01 770.772 1881.62 769.531 1882.45 768.461 1883.49 767.39 1884.54 766.538 1885.73 765.906 1887.07 765.273 1888.41 764.908 1889.81 764.811 1891.27L788.098 1891.27C787.952 1888.05 786.917 1885.39 784.995 1883.27 783.073 1881.16 780.335 1880.1 776.783 1880.1ZM589.242 1880.1C587.247 1880.1 585.458 1880.46 583.877 1881.19 582.295 1881.92 580.944 1882.91 579.825 1884.15 578.706 1885.39 577.842 1886.85 577.234 1888.53 576.625 1890.21 576.321 1892 576.321 1893.89 576.321 1895.79 576.625 1897.58 577.234 1899.26 577.842 1900.94 578.706 1902.4 579.825 1903.64 580.944 1904.88 582.295 1905.85 583.877 1906.56 585.458 1907.27 587.247 1907.62 589.242 1907.62 591.237 1907.62 593.038 1907.27 594.644 1906.56 596.25 1905.85 597.613 1904.88 598.732 1903.64 599.851 1902.4 600.715 1900.94 601.324 1899.26 601.932 1897.58 602.236 1895.79 602.236 1893.89 602.236 1892 601.932 1890.21 601.324 1888.53 600.715 1886.85 599.851 1885.39 598.732 1884.15 597.613 1882.91 596.25 1881.92 594.644 1881.19 593.038 1880.46 591.237 1880.1 589.242 1880.1ZM654.609 1876.81 659.573 1876.81 659.573 1895.72C659.573 1897.52 659.719 1899.15 660.011 1900.61 660.303 1902.07 660.802 1903.32 661.508 1904.37 662.213 1905.42 663.162 1906.23 664.355 1906.82 665.547 1907.4 667.044 1907.69 668.844 1907.69 670.158 1907.69 671.436 1907.42 672.677 1906.89 673.918 1906.35 675.025 1905.54 675.998 1904.44 676.972 1903.35 677.75 1901.96 678.334 1900.28 678.918 1898.6 679.21 1896.62 679.21 1894.33L679.21 1876.81 684.174 1876.81 684.174 1903.46C684.174 1904.38 684.199 1905.57 684.247 1907.03 684.296 1908.49 684.369 1909.81 684.466 1910.98L679.721 1910.98C679.624 1910.05 679.551 1909.03 679.502 1907.91 679.454 1906.79 679.429 1905.87 679.429 1905.14L679.283 1905.14C678.31 1907.13 676.728 1908.75 674.538 1909.99 672.348 1911.23 670.037 1911.85 667.603 1911.85 663.272 1911.85 660.023 1910.56 657.858 1907.98 655.692 1905.4 654.609 1902 654.609 1897.76ZM820.431 1875.94C824.762 1875.94 828.01 1877.23 830.176 1879.81 832.342 1882.38 833.425 1885.79 833.425 1890.03L833.425 1910.98 828.461 1910.98 828.461 1892.07C828.461 1890.27 828.315 1888.64 828.023 1887.18 827.731 1885.72 827.232 1884.47 826.526 1883.42 825.82 1882.37 824.871 1881.56 823.679 1880.97 822.487 1880.39 820.99 1880.1 819.19 1880.1 817.876 1880.1 816.598 1880.36 815.357 1880.9 814.116 1881.44 813.009 1882.25 812.036 1883.35 811.062 1884.44 810.284 1885.83 809.7 1887.51 809.116 1889.19 808.824 1891.17 808.824 1893.46L808.824 1910.98 803.86 1910.98 803.86 1884.33C803.86 1883.41 803.835 1882.21 803.787 1880.75 803.738 1879.29 803.665 1877.98 803.568 1876.81L808.313 1876.81C808.41 1877.74 808.483 1878.76 808.532 1879.88 808.58 1881 808.605 1881.92 808.605 1882.65L808.751 1882.65C809.724 1880.66 811.306 1879.04 813.496 1877.8 815.686 1876.56 817.997 1875.94 820.431 1875.94ZM776.783 1875.94C779.459 1875.94 781.82 1876.39 783.864 1877.29 785.908 1878.19 787.611 1879.4 788.974 1880.94 790.336 1882.47 791.37 1884.26 792.076 1886.3 792.782 1888.35 793.135 1890.54 793.135 1892.87 793.135 1893.21 793.135 1893.58 793.135 1893.97 793.135 1894.36 793.11 1894.77 793.062 1895.21L764.738 1895.21C764.786 1896.91 765.127 1898.52 765.76 1900.03 766.392 1901.53 767.268 1902.85 768.388 1903.97 769.507 1905.09 770.821 1905.98 772.33 1906.63 773.838 1907.29 775.469 1907.62 777.221 1907.62 779.8 1907.62 782.026 1907.02 783.9 1905.83 785.774 1904.64 787.197 1903.26 788.171 1901.71L791.894 1904.63C789.85 1907.2 787.599 1909.05 785.141 1910.17 782.683 1911.29 780.043 1911.85 777.221 1911.85 774.69 1911.85 772.342 1911.4 770.176 1910.5 768.01 1909.6 766.149 1908.35 764.592 1906.74 763.034 1905.14 761.806 1903.24 760.905 1901.05 760.005 1898.86 759.555 1896.47 759.555 1893.89 759.555 1891.31 759.993 1888.93 760.869 1886.74 761.745 1884.55 762.961 1882.65 764.519 1881.05 766.076 1879.44 767.901 1878.19 769.994 1877.29 772.086 1876.39 774.349 1875.94 776.783 1875.94ZM713.43 1875.94C714.355 1875.94 715.316 1876.03 716.314 1876.23 717.311 1876.42 718.285 1876.8 719.234 1877.36 720.183 1877.92 721.059 1878.66 721.862 1879.59 722.665 1880.51 723.358 1881.7 723.942 1883.16 725.11 1880.83 726.704 1879.04 728.724 1877.8 730.743 1876.56 733.14 1875.94 735.914 1875.94 740.245 1875.94 743.494 1877.23 745.66 1879.81 747.825 1882.38 748.908 1885.79 748.908 1890.03L748.908 1910.98 743.944 1910.98 743.944 1892.07C743.944 1888.47 743.275 1885.57 741.937 1883.38 740.598 1881.19 738.323 1880.1 735.111 1880.1 733.31 1880.1 731.79 1880.46 730.549 1881.19 729.308 1881.92 728.31 1882.88 727.556 1884.08 726.801 1885.27 726.254 1886.62 725.913 1888.13 725.572 1889.64 725.402 1891.19 725.402 1892.8L725.402 1910.98 720.438 1910.98 720.438 1891.05C720.438 1889.39 720.316 1887.88 720.073 1886.52 719.83 1885.16 719.404 1884 718.796 1883.05 718.187 1882.1 717.348 1881.37 716.277 1880.86 715.206 1880.35 713.844 1880.1 712.189 1880.1 711.021 1880.1 709.841 1880.36 708.649 1880.9 707.456 1881.44 706.386 1882.25 705.437 1883.35 704.488 1884.44 703.721 1885.83 703.137 1887.51 702.553 1889.19 702.261 1891.17 702.261 1893.46L702.261 1910.98 697.297 1910.98 697.297 1884.33C697.297 1883.41 697.273 1882.21 697.224 1880.75 697.175 1879.29 697.102 1877.98 697.005 1876.81L701.75 1876.81C701.847 1877.74 701.92 1878.76 701.969 1879.88 702.018 1881 702.042 1881.92 702.042 1882.65L702.188 1882.65C703.161 1880.66 704.658 1879.04 706.678 1877.8 708.697 1876.56 710.948 1875.94 713.43 1875.94ZM634.003 1875.94C636.29 1875.94 638.614 1876.44 640.974 1877.43 643.334 1878.43 645.245 1879.9 646.705 1881.85L642.836 1884.62C642.008 1883.31 640.804 1882.23 639.222 1881.37 637.64 1880.52 635.925 1880.1 634.076 1880.1 632.08 1880.1 630.28 1880.45 628.674 1881.16 627.068 1881.86 625.693 1882.83 624.549 1884.08 623.405 1885.32 622.529 1886.78 621.921 1888.46 621.313 1890.13 621.009 1891.95 621.009 1893.89 621.009 1895.84 621.313 1897.64 621.921 1899.3 622.529 1900.95 623.393 1902.4 624.513 1903.64 625.632 1904.88 626.995 1905.85 628.601 1906.56 630.207 1907.27 632.007 1907.62 634.003 1907.62 636.193 1907.62 638.042 1907.2 639.551 1906.38 641.059 1905.55 642.3 1904.48 643.274 1903.17L646.997 1905.94C645.537 1907.74 643.748 1909.18 641.631 1910.25 639.514 1911.32 636.971 1911.85 634.003 1911.85 631.229 1911.85 628.722 1911.4 626.484 1910.5 624.245 1909.6 622.335 1908.35 620.753 1906.74 619.171 1905.14 617.943 1903.24 617.067 1901.05 616.191 1898.86 615.753 1896.47 615.753 1893.89 615.753 1891.31 616.191 1888.93 617.067 1886.74 617.943 1884.55 619.171 1882.65 620.753 1881.05 622.335 1879.44 624.245 1878.19 626.484 1877.29 628.722 1876.39 631.229 1875.94 634.003 1875.94ZM589.242 1875.94C591.919 1875.94 594.376 1876.39 596.615 1877.29 598.854 1878.19 600.776 1879.44 602.382 1881.05 603.988 1882.65 605.241 1884.55 606.142 1886.74 607.042 1888.93 607.492 1891.31 607.492 1893.89 607.492 1896.47 607.042 1898.86 606.142 1901.05 605.241 1903.24 603.988 1905.14 602.382 1906.74 600.776 1908.35 598.854 1909.6 596.615 1910.5 594.376 1911.4 591.919 1911.85 589.242 1911.85 586.614 1911.85 584.181 1911.4 581.942 1910.5 579.703 1909.6 577.781 1908.35 576.175 1906.74 574.569 1905.14 573.316 1903.24 572.416 1901.05 571.515 1898.86 571.065 1896.47 571.065 1893.89 571.065 1891.31 571.515 1888.93 572.416 1886.74 573.316 1884.55 574.569 1882.65 576.175 1881.05 577.781 1879.44 579.703 1878.19 581.942 1877.29 584.181 1876.39 586.614 1875.94 589.242 1875.94ZM847.058 1867.18 852.022 1867.18 852.022 1876.81 861.658 1876.81 861.658 1880.97 852.022 1880.97 852.022 1900.9C852.022 1902.17 852.144 1903.21 852.387 1904.04 852.631 1904.87 852.984 1905.51 853.446 1905.98 853.908 1906.44 854.456 1906.75 855.088 1906.92 855.721 1907.09 856.402 1907.18 857.132 1907.18 857.814 1907.18 858.532 1907.08 859.286 1906.89 860.04 1906.69 860.758 1906.43 861.439 1906.09L861.658 1910.39C860.782 1910.73 859.87 1910.99 858.921 1911.16 857.972 1911.33 856.938 1911.41 855.818 1911.41 854.894 1911.41 853.92 1911.29 852.898 1911.05 851.876 1910.81 850.927 1910.34 850.051 1909.66 849.175 1908.98 848.458 1908.06 847.898 1906.89 847.338 1905.72 847.058 1904.19 847.058 1902.29L847.058 1880.97 839.977 1880.97 839.977 1876.81 847.058 1876.81ZM523.522 1863.96 523.522 1906.3 533.961 1906.3C537.854 1906.3 541.249 1905.7 544.145 1904.48 547.04 1903.26 549.437 1901.67 551.335 1899.7 553.233 1897.73 554.657 1895.48 555.606 1892.95 556.555 1890.41 557.029 1887.81 557.029 1885.13 557.029 1882.46 556.555 1879.85 555.606 1877.32 554.657 1874.79 553.233 1872.54 551.335 1870.57 549.437 1868.6 547.04 1867.01 544.145 1865.79 541.249 1864.57 537.854 1863.96 533.961 1863.96ZM518.266 1859.29 535.421 1859.29C538.633 1859.29 541.857 1859.83 545.094 1860.9 548.33 1861.97 551.25 1863.59 553.854 1865.75 556.457 1867.92 558.562 1870.62 560.168 1873.86 561.774 1877.09 562.577 1880.85 562.577 1885.13 562.577 1889.47 561.774 1893.24 560.168 1896.45 558.562 1899.66 556.457 1902.35 553.854 1904.52 551.25 1906.68 548.33 1908.3 545.094 1909.37 541.857 1910.44 538.633 1910.98 535.421 1910.98L518.266 1910.98Z" stroke="#737679" stroke-width="1" stroke-linecap="butt" stroke-linejoin="round" stroke-miterlimit="10" stroke-opacity="1" fill="#2D3748" fill-rule="evenodd" fill-opacity="1"/><text fill="#000000" fill-opacity="0" font-family="Arial,Arial_MSFontService,sans-serif" font-size="52.5599" direction="ltr" writing-mode="lr-tb" x="518.266" y="1905.28">Document</text><path d="M1985.73 1883.12C1984.07 1883.12 1982.54 1883.42 1981.13 1884.03 1979.72 1884.64 1978.48 1885.47 1977.4 1886.51 1976.33 1887.56 1975.48 1888.75 1974.85 1890.09 1974.22 1891.43 1973.85 1892.83 1973.75 1894.29L1997.04 1894.29C1996.9 1891.08 1995.86 1888.41 1993.94 1886.29 1992.02 1884.18 1989.28 1883.12 1985.73 1883.12ZM1864.84 1883.12C1863.19 1883.12 1861.65 1883.42 1860.24 1884.03 1858.83 1884.64 1857.59 1885.47 1856.52 1886.51 1855.45 1887.56 1854.6 1888.75 1853.96 1890.09 1853.33 1891.43 1852.97 1892.83 1852.87 1894.29L1876.16 1894.29C1876.01 1891.08 1874.98 1888.41 1873.05 1886.29 1871.13 1884.18 1868.39 1883.12 1864.84 1883.12ZM1757.13 1883.12C1755.48 1883.12 1753.94 1883.42 1752.53 1884.03 1751.12 1884.64 1749.88 1885.47 1748.81 1886.51 1747.74 1887.56 1746.89 1888.75 1746.26 1890.09 1745.62 1891.43 1745.26 1892.83 1745.16 1894.29L1768.45 1894.29C1768.3 1891.08 1767.27 1888.41 1765.35 1886.29 1763.42 1884.18 1760.69 1883.12 1757.13 1883.12ZM2022.8 1878.96C2025.19 1878.96 2027.5 1879.49 2029.74 1880.56 2031.98 1881.63 2033.66 1883.14 2034.78 1885.09L2030.98 1887.94C2030.25 1886.52 2029.14 1885.37 2027.66 1884.47 2026.17 1883.57 2024.48 1883.12 2022.59 1883.12 2021.71 1883.12 2020.83 1883.22 2019.96 1883.41 2019.08 1883.6 2018.3 1883.92 2017.62 1884.36 2016.94 1884.8 2016.39 1885.36 2015.98 1886.04 2015.57 1886.72 2015.36 1887.52 2015.36 1888.45 2015.36 1890.05 2016.02 1891.28 2017.33 1892.13 2018.64 1892.99 2020.71 1893.7 2023.53 1894.29 2027.57 1895.11 2030.55 1896.32 2032.48 1897.9 2034.4 1899.48 2035.36 1901.61 2035.36 1904.29 2035.36 1906.23 2034.98 1907.88 2034.23 1909.22 2033.47 1910.55 2032.49 1911.65 2031.27 1912.5 2030.06 1913.35 2028.68 1913.96 2027.15 1914.33 2025.61 1914.69 2024.07 1914.87 2022.51 1914.87 2019.93 1914.87 2017.43 1914.34 2014.99 1913.27 2012.56 1912.2 2010.56 1910.52 2009.01 1908.23L2012.95 1905.31C2013.83 1906.82 2015.11 1908.08 2016.82 1909.11 2018.52 1910.13 2020.4 1910.64 2022.44 1910.64 2023.51 1910.64 2024.53 1910.54 2025.51 1910.35 2026.48 1910.15 2027.33 1909.81 2028.06 1909.33 2028.79 1908.84 2029.37 1908.22 2029.81 1907.46 2030.25 1906.71 2030.47 1905.77 2030.47 1904.65 2030.47 1902.85 2029.61 1901.5 2027.88 1900.6 2026.15 1899.7 2023.66 1898.86 2020.4 1898.08 2019.37 1897.84 2018.29 1897.54 2017.15 1897.17 2016 1896.81 2014.94 1896.27 2013.97 1895.56 2013 1894.86 2012.19 1893.97 2011.56 1892.9 2010.93 1891.83 2010.61 1890.49 2010.61 1888.89 2010.61 1887.13 2010.95 1885.64 2011.64 1884.4 2012.32 1883.15 2013.23 1882.13 2014.37 1881.33 2015.52 1880.53 2016.82 1879.93 2018.28 1879.54 2019.74 1879.15 2021.25 1878.96 2022.8 1878.96ZM1985.73 1878.96C1988.4 1878.96 1990.76 1879.41 1992.81 1880.31 1994.85 1881.21 1996.55 1882.42 1997.92 1883.96 1999.28 1885.49 2000.31 1887.28 2001.02 1889.32 2001.73 1891.37 2002.08 1893.56 2002.08 1895.89 2002.08 1896.23 2002.08 1896.6 2002.08 1896.99 2002.08 1897.38 2002.05 1897.79 2002.01 1898.23L1973.68 1898.23C1973.73 1899.93 1974.07 1901.54 1974.7 1903.05 1975.34 1904.56 1976.21 1905.87 1977.33 1906.99 1978.45 1908.11 1979.76 1909 1981.27 1909.65 1982.78 1910.31 1984.41 1910.64 1986.16 1910.64 1988.74 1910.64 1990.97 1910.04 1992.84 1908.85 1994.72 1907.66 1996.14 1906.28 1997.11 1904.73L2000.84 1907.65C1998.79 1910.23 1996.54 1912.07 1994.08 1913.19 1991.63 1914.31 1988.99 1914.87 1986.16 1914.87 1983.63 1914.87 1981.29 1914.42 1979.12 1913.52 1976.95 1912.62 1975.09 1911.37 1973.54 1909.76 1971.98 1908.16 1970.75 1906.26 1969.85 1904.07 1968.95 1901.88 1968.5 1899.49 1968.5 1896.92 1968.5 1894.34 1968.94 1891.95 1969.81 1889.76 1970.69 1887.57 1971.91 1885.67 1973.46 1884.07 1975.02 1882.46 1976.84 1881.21 1978.94 1880.31 1981.03 1879.41 1983.29 1878.96 1985.73 1878.96ZM1950.08 1878.96C1952.37 1878.96 1954.69 1879.46 1957.05 1880.45 1959.41 1881.45 1961.32 1882.92 1962.78 1884.87L1958.91 1887.64C1958.09 1886.33 1956.88 1885.25 1955.3 1884.4 1953.72 1883.54 1952 1883.12 1950.15 1883.12 1948.16 1883.12 1946.36 1883.47 1944.75 1884.18 1943.15 1884.88 1941.77 1885.86 1940.63 1887.1 1939.48 1888.34 1938.61 1889.8 1938 1891.48 1937.39 1893.16 1937.09 1894.97 1937.09 1896.92 1937.09 1898.86 1937.39 1900.66 1938 1902.32 1938.61 1903.97 1939.47 1905.42 1940.59 1906.66 1941.71 1907.9 1943.07 1908.88 1944.68 1909.58 1946.29 1910.29 1948.09 1910.64 1950.08 1910.64 1952.27 1910.64 1954.12 1910.23 1955.63 1909.4 1957.14 1908.57 1958.38 1907.5 1959.35 1906.19L1963.08 1908.96C1961.62 1910.76 1959.83 1912.2 1957.71 1913.27 1955.59 1914.34 1953.05 1914.87 1950.08 1914.87 1947.31 1914.87 1944.8 1914.42 1942.56 1913.52 1940.32 1912.62 1938.41 1911.37 1936.83 1909.76 1935.25 1908.16 1934.02 1906.26 1933.15 1904.07 1932.27 1901.88 1931.83 1899.49 1931.83 1896.92 1931.83 1894.34 1932.27 1891.95 1933.15 1889.76 1934.02 1887.57 1935.25 1885.67 1936.83 1884.07 1938.41 1882.46 1940.32 1881.21 1942.56 1880.31 1944.8 1879.41 1947.31 1878.96 1950.08 1878.96ZM1908.49 1878.96C1912.82 1878.96 1916.07 1880.25 1918.23 1882.83 1920.4 1885.41 1921.48 1888.81 1921.48 1893.05L1921.48 1914 1916.52 1914 1916.52 1895.09C1916.52 1893.29 1916.37 1891.66 1916.08 1890.2 1915.79 1888.74 1915.29 1887.49 1914.58 1886.44 1913.88 1885.39 1912.93 1884.58 1911.74 1883.99 1910.55 1883.41 1909.05 1883.12 1907.25 1883.12 1905.93 1883.12 1904.66 1883.39 1903.42 1883.92 1902.17 1884.46 1901.07 1885.27 1900.09 1886.37 1899.12 1887.46 1898.34 1888.85 1897.76 1890.53 1897.17 1892.21 1896.88 1894.19 1896.88 1896.48L1896.88 1914 1891.92 1914 1891.92 1887.35C1891.92 1886.43 1891.89 1885.24 1891.84 1883.78 1891.8 1882.32 1891.72 1881 1891.63 1879.83L1896.37 1879.83C1896.47 1880.76 1896.54 1881.78 1896.59 1882.9 1896.64 1884.02 1896.66 1884.94 1896.66 1885.67L1896.81 1885.67C1897.78 1883.68 1899.36 1882.06 1901.55 1880.82 1903.74 1879.58 1906.06 1878.96 1908.49 1878.96ZM1864.84 1878.96C1867.52 1878.96 1869.88 1879.41 1871.92 1880.31 1873.97 1881.21 1875.67 1882.42 1877.03 1883.96 1878.39 1885.49 1879.43 1887.28 1880.13 1889.32 1880.84 1891.37 1881.19 1893.56 1881.19 1895.89 1881.19 1896.23 1881.19 1896.6 1881.19 1896.99 1881.19 1897.38 1881.17 1897.79 1881.12 1898.23L1852.8 1898.23C1852.84 1899.93 1853.19 1901.54 1853.82 1903.05 1854.45 1904.56 1855.33 1905.87 1856.45 1906.99 1857.57 1908.11 1858.88 1909 1860.39 1909.65 1861.9 1910.31 1863.53 1910.64 1865.28 1910.64 1867.86 1910.64 1870.08 1910.04 1871.96 1908.85 1873.83 1907.66 1875.26 1906.28 1876.23 1904.73L1879.95 1907.65C1877.91 1910.23 1875.66 1912.07 1873.2 1913.19 1870.74 1914.31 1868.1 1914.87 1865.28 1914.87 1862.75 1914.87 1860.4 1914.42 1858.23 1913.52 1856.07 1912.62 1854.21 1911.37 1852.65 1909.76 1851.09 1908.16 1849.86 1906.26 1848.96 1904.07 1848.06 1901.88 1847.61 1899.49 1847.61 1896.92 1847.61 1894.34 1848.05 1891.95 1848.93 1889.76 1849.8 1887.57 1851.02 1885.67 1852.58 1884.07 1854.13 1882.46 1855.96 1881.21 1858.05 1880.31 1860.14 1879.41 1862.41 1878.96 1864.84 1878.96ZM1800.78 1878.96C1805.11 1878.96 1808.36 1880.25 1810.53 1882.83 1812.69 1885.41 1813.77 1888.81 1813.77 1893.05L1813.77 1914 1808.81 1914 1808.81 1895.09C1808.81 1893.29 1808.66 1891.66 1808.37 1890.2 1808.08 1888.74 1807.58 1887.49 1806.88 1886.44 1806.17 1885.39 1805.22 1884.58 1804.03 1883.99 1802.84 1883.41 1801.34 1883.12 1799.54 1883.12 1798.23 1883.12 1796.95 1883.39 1795.71 1883.92 1794.47 1884.46 1793.36 1885.27 1792.39 1886.37 1791.41 1887.46 1790.63 1888.85 1790.05 1890.53 1789.47 1892.21 1789.17 1894.19 1789.17 1896.48L1789.17 1914 1784.21 1914 1784.21 1887.35C1784.21 1886.43 1784.19 1885.24 1784.14 1883.78 1784.09 1882.32 1784.01 1881 1783.92 1879.83L1788.66 1879.83C1788.76 1880.76 1788.83 1881.78 1788.88 1882.9 1788.93 1884.02 1788.95 1884.94 1788.95 1885.67L1789.1 1885.67C1790.07 1883.68 1791.66 1882.06 1793.85 1880.82 1796.04 1879.58 1798.35 1878.96 1800.78 1878.96ZM1757.13 1878.96C1759.81 1878.96 1762.17 1879.41 1764.21 1880.31 1766.26 1881.21 1767.96 1882.42 1769.32 1883.96 1770.69 1885.49 1771.72 1887.28 1772.43 1889.32 1773.13 1891.37 1773.48 1893.56 1773.48 1895.89 1773.48 1896.23 1773.48 1896.6 1773.48 1896.99 1773.48 1897.38 1773.46 1897.79 1773.41 1898.23L1745.09 1898.23C1745.14 1899.93 1745.48 1901.54 1746.11 1903.05 1746.74 1904.56 1747.62 1905.87 1748.74 1906.99 1749.86 1908.11 1751.17 1909 1752.68 1909.65 1754.19 1910.31 1755.82 1910.64 1757.57 1910.64 1760.15 1910.64 1762.38 1910.04 1764.25 1908.85 1766.12 1907.66 1767.55 1906.28 1768.52 1904.73L1772.24 1907.65C1770.2 1910.23 1767.95 1912.07 1765.49 1913.19 1763.03 1914.31 1760.39 1914.87 1757.57 1914.87 1755.04 1914.87 1752.69 1914.42 1750.53 1913.52 1748.36 1912.62 1746.5 1911.37 1744.94 1909.76 1743.38 1908.16 1742.16 1906.26 1741.26 1904.07 1740.35 1901.88 1739.9 1899.49 1739.9 1896.92 1739.9 1894.34 1740.34 1891.95 1741.22 1889.76 1742.09 1887.57 1743.31 1885.67 1744.87 1884.07 1746.43 1882.46 1748.25 1881.21 1750.34 1880.31 1752.44 1879.41 1754.7 1878.96 1757.13 1878.96ZM1827.41 1870.2 1832.37 1870.2 1832.37 1879.83 1842.01 1879.83 1842.01 1883.99 1832.37 1883.99 1832.37 1903.92C1832.37 1905.19 1832.49 1906.23 1832.74 1907.06 1832.98 1907.89 1833.33 1908.53 1833.8 1909 1834.26 1909.46 1834.81 1909.78 1835.44 1909.95 1836.07 1910.12 1836.75 1910.2 1837.48 1910.2 1838.16 1910.2 1838.88 1910.1 1839.64 1909.91 1840.39 1909.71 1841.11 1909.45 1841.79 1909.11L1842.01 1913.41C1841.13 1913.75 1840.22 1914.01 1839.27 1914.18 1838.32 1914.35 1837.29 1914.44 1836.17 1914.44 1835.24 1914.44 1834.27 1914.31 1833.25 1914.07 1832.23 1913.83 1831.28 1913.36 1830.4 1912.68 1829.53 1912 1828.81 1911.08 1828.25 1909.91 1827.69 1908.74 1827.41 1907.21 1827.41 1905.31L1827.41 1883.99 1820.33 1883.99 1820.33 1879.83 1827.41 1879.83ZM1716.03 1861C1719.53 1861 1722.53 1861.62 1725.01 1862.86 1727.49 1864.1 1729.36 1865.57 1730.63 1867.28L1726.47 1870.64C1725.35 1869.08 1723.91 1867.82 1722.16 1866.88 1720.41 1865.93 1718.29 1865.45 1715.81 1865.45 1714.54 1865.45 1713.25 1865.65 1711.94 1866.04 1710.63 1866.43 1709.43 1867.02 1708.36 1867.82 1707.29 1868.63 1706.43 1869.64 1705.77 1870.85 1705.12 1872.07 1704.79 1873.51 1704.79 1875.16 1704.79 1876.82 1705.1 1878.18 1705.73 1879.25 1706.36 1880.32 1707.2 1881.23 1708.24 1881.99 1709.29 1882.74 1710.48 1883.36 1711.81 1883.85 1713.15 1884.33 1714.54 1884.82 1716 1885.31 1717.79 1885.89 1719.6 1886.52 1721.42 1887.21 1723.24 1887.89 1724.88 1888.78 1726.34 1889.87 1727.79 1890.97 1728.98 1892.35 1729.9 1894.03 1730.82 1895.71 1731.29 1897.84 1731.29 1900.42 1731.29 1903 1730.79 1905.22 1729.81 1907.1 1728.83 1908.97 1727.55 1910.52 1725.98 1911.73 1724.41 1912.95 1722.61 1913.85 1720.59 1914.44 1718.57 1915.02 1716.54 1915.31 1714.5 1915.31 1712.94 1915.31 1711.38 1915.15 1709.82 1914.84 1708.27 1914.52 1706.78 1914.05 1705.37 1913.41 1703.96 1912.78 1702.65 1911.98 1701.43 1911 1700.21 1910.03 1699.14 1908.91 1698.22 1907.65L1702.74 1904.29C1703.86 1906.14 1705.43 1907.68 1707.45 1908.92 1709.47 1910.16 1711.84 1910.79 1714.57 1910.79 1715.88 1910.79 1717.22 1910.58 1718.58 1910.16 1719.95 1909.75 1721.18 1909.12 1722.27 1908.27 1723.37 1907.42 1724.27 1906.37 1724.97 1905.13 1725.68 1903.89 1726.03 1902.44 1726.03 1900.78 1726.03 1898.98 1725.68 1897.49 1724.97 1896.29 1724.27 1895.1 1723.33 1894.1 1722.16 1893.3 1720.99 1892.5 1719.65 1891.83 1718.15 1891.29 1716.64 1890.76 1715.06 1890.22 1713.4 1889.69 1711.7 1889.15 1710.02 1888.54 1708.36 1887.86 1706.71 1887.18 1705.22 1886.29 1703.91 1885.2 1702.6 1884.1 1701.54 1882.75 1700.74 1881.15 1699.93 1879.54 1699.53 1877.57 1699.53 1875.23 1699.53 1872.75 1700.03 1870.61 1701.03 1868.81 1702.02 1867.01 1703.33 1865.53 1704.93 1864.36 1706.54 1863.19 1708.31 1862.34 1710.26 1861.8 1712.21 1861.27 1714.13 1861 1716.03 1861Z" stroke="#737679" stroke-width="1" stroke-linecap="butt" stroke-linejoin="round" stroke-miterlimit="10" stroke-opacity="1" fill="#2D3748" fill-rule="evenodd" fill-opacity="1"/><text fill="#000000" fill-opacity="0" font-family="Arial,Arial_MSFontService,sans-serif" font-size="54.312" direction="ltr" writing-mode="lr-tb" x="1698.22" y="1908.52">Sentences</text><path d="M1513.84 1892C1421.7 1892 1347 1817.32 1347 1725.21L1347 694.793C1347 602.676 1421.7 528 1513.84 528L2181.16 528C2273.3 528 2348 602.676 2348 694.793L2348 1725.21C2348 1817.32 2285.03 1888.65 2202.44 1891.5" stroke="#2D3748" stroke-width="10.3125" stroke-linecap="butt" stroke-linejoin="miter" stroke-miterlimit="8" stroke-opacity="1" fill="none" fill-rule="evenodd"/><path d="M1513 1892 1645.52 1895.02" stroke="#2D3748" stroke-width="10.3125" stroke-linecap="butt" stroke-linejoin="miter" stroke-miterlimit="8" stroke-opacity="1" fill="none" fill-rule="evenodd"/><path d="M0 0 115.983 3.52375" stroke="#2D3748" stroke-width="10.3125" stroke-linecap="butt" stroke-linejoin="miter" stroke-miterlimit="8" stroke-opacity="1" fill="none" fill-rule="evenodd" transform="matrix(1 0 0 -1 2088 1894.52)"/><path d="M2819.67 1894C2727.62 1894 2653 1819.32 2653 1727.21L2653 696.793C2653 604.676 2727.62 530 2819.67 530L3486.33 530C3578.38 530 3653 604.676 3653 696.793L3653 1727.21C3653 1819.32 3590.1 1890.65 3507.59 1893.5" stroke="#2D3748" stroke-width="10.3125" stroke-linecap="butt" stroke-linejoin="miter" stroke-miterlimit="8" stroke-opacity="1" fill="none" fill-rule="evenodd"/><path d="M2806 1894 2874.48 1895.88" stroke="#2D3748" stroke-width="10.3125" stroke-linecap="butt" stroke-linejoin="miter" stroke-miterlimit="8" stroke-opacity="1" fill="none" fill-rule="evenodd"/><path d="M0 0 55.2533 3.52375" stroke="#2D3748" stroke-width="10.3125" stroke-linecap="butt" stroke-linejoin="miter" stroke-miterlimit="8" stroke-opacity="1" fill="none" fill-rule="evenodd" transform="matrix(1 0 0 -1 3455 1896.52)"/><path d="M212.837 1892C120.696 1892 46.0001 1817.32 46.0001 1725.21L46.0001 694.793C46.0001 602.676 120.696 528 212.837 528L880.163 528C972.305 528 1047 602.676 1047 694.793L1047 1725.21C1047 1817.32 984.033 1888.65 901.443 1891.5" stroke="#2D3748" stroke-width="10.3125" stroke-linecap="butt" stroke-linejoin="miter" stroke-miterlimit="8" stroke-opacity="1" fill="none" fill-rule="evenodd"/><path d="M0 0 19.7325 1.23209" stroke="#2D3748" stroke-width="10.3125" stroke-linecap="butt" stroke-linejoin="miter" stroke-miterlimit="8" stroke-opacity="1" fill="none" fill-rule="evenodd" transform="matrix(1 0 0 -1 882 1892.23)"/></g></svg>
