<svg width="4308" height="1380" xmlns="http://www.w3.org/2000/svg" xmlns:xlink="http://www.w3.org/1999/xlink" xml:space="preserve" overflow="hidden"><defs><clipPath id="clip0"><rect x="41" y="517" width="4308" height="1380"/></clipPath></defs><g clip-path="url(#clip0)" transform="translate(-41 -517)"><path d="M1377 692.836C1377 600.695 1451.7 526 1543.84 526L2211.16 526C2303.3 526 2378 600.695 2378 692.836L2378 1723.16C2378 1815.3 2303.3 1890 2211.16 1890L1543.84 1890C1451.7 1890 1377 1815.3 1377 1723.16Z" stroke="#737679" stroke-width="10.3125" stroke-linecap="butt" stroke-linejoin="miter" stroke-miterlimit="8" stroke-opacity="1" fill="#9C9FA6" fill-rule="evenodd" fill-opacity="1"/><path d="M2680 691.836C2680 599.695 2754.7 525 2846.84 525L3514.16 525C3606.3 525 3681 599.695 3681 691.836L3681 1722.16C3681 1814.3 3606.3 1889 3514.16 1889L2846.84 1889C2754.7 1889 2680 1814.3 2680 1722.16Z" stroke="#737679" stroke-width="10.3125" stroke-linecap="butt" stroke-linejoin="miter" stroke-miterlimit="8" stroke-opacity="1" fill="#9C9FA6" fill-rule="evenodd" fill-opacity="1"/><path d="M49.9998 693.836C49.9998 601.695 124.695 527 216.836 527L884.163 527C976.305 527 1051 601.695 1051 693.836L1051 1724.16C1051 1816.3 976.305 1891 884.163 1891L216.836 1891C124.695 1891 49.9998 1816.3 49.9998 1724.16Z" stroke="#737679" stroke-width="10.3125" stroke-linecap="butt" stroke-linejoin="miter" stroke-miterlimit="8" stroke-opacity="1" fill="#9C9FA6" fill-rule="evenodd" fill-opacity="1"/><rect x="114.5" y="700.5" width="428" height="29.9999" stroke="#737679" stroke-width="4.58333" stroke-linecap="butt" stroke-linejoin="miter" stroke-miterlimit="8" stroke-opacity="1" fill="#FFFFFF" fill-opacity="1"/><rect x="114.5" y="769.5" width="428" height="30.9999" stroke="#737679" stroke-width="4.58333" stroke-linecap="butt" stroke-linejoin="miter" stroke-miterlimit="8" stroke-opacity="1" fill="#FFFFFF" fill-opacity="1"/><rect x="114.5" y="839.5" width="428" height="29.9999" stroke="#737679" stroke-width="4.58333" stroke-linecap="butt" stroke-linejoin="miter" stroke-miterlimit="8" stroke-opacity="1" fill="#FFFFFF" fill-opacity="1"/><rect x="114.5" y="959.5" width="857" height="30.9999" stroke="#737679" stroke-width="4.58333" stroke-linecap="butt" stroke-linejoin="miter" stroke-miterlimit="8" stroke-opacity="1" fill="#FFFFFF" fill-opacity="1"/><rect x="114.5" y="1040.5" width="857" height="29.9999" stroke="#737679" stroke-width="4.58333" stroke-linecap="butt" stroke-linejoin="miter" stroke-miterlimit="8" stroke-opacity="1" fill="#FFFFFF" fill-opacity="1"/><rect x="114.5" y="1120.5" width="857" height="30.9999" stroke="#737679" stroke-width="4.58333" stroke-linecap="butt" stroke-linejoin="miter" stroke-miterlimit="8" stroke-opacity="1" fill="#FFFFFF" fill-opacity="1"/><rect x="114.5" y="1201.5" width="857" height="30.9999" stroke="#737679" stroke-width="4.58333" stroke-linecap="butt" stroke-linejoin="miter" stroke-miterlimit="8" stroke-opacity="1" fill="#FFFFFF" fill-opacity="1"/><rect x="114.5" y="1282.5" width="857" height="29.9999" stroke="#737679" stroke-width="4.58333" stroke-linecap="butt" stroke-linejoin="miter" stroke-miterlimit="8" stroke-opacity="1" fill="#FFFFFF" fill-opacity="1"/><rect x="114.5" y="1362.5" width="857" height="30.9999" stroke="#737679" stroke-width="4.58333" stroke-linecap="butt" stroke-linejoin="miter" stroke-miterlimit="8" stroke-opacity="1" fill="#FFFFFF" fill-opacity="1"/><rect x="114.5" y="1444.5" width="857" height="29.9999" stroke="#737679" stroke-width="4.58333" stroke-linecap="butt" stroke-linejoin="miter" stroke-miterlimit="8" stroke-opacity="1" fill="#FFFFFF" fill-opacity="1"/><rect x="114.5" y="1525.5" width="857" height="30.9999" stroke="#737679" stroke-width="4.58333" stroke-linecap="butt" stroke-linejoin="miter" stroke-miterlimit="8" stroke-opacity="1" fill="#FFFFFF" fill-opacity="1"/><rect x="114.5" y="1659.5" width="428" height="29.9999" stroke="#737679" stroke-width="4.58333" stroke-linecap="butt" stroke-linejoin="miter" stroke-miterlimit="8" stroke-opacity="1" fill="#FFFFFF" fill-opacity="1"/><path d="M0.00622536-5.15625 300.041-4.794 300.029 5.51849-0.00622536 5.15625ZM294.898-15.1127 325.817 0.393373 294.86 15.8248Z" fill="#737679" fill-rule="nonzero" fill-opacity="1" transform="matrix(1 0 0 -1 1051 1208.39)"/><rect x="1444.5" y="846.5" width="857" height="29.9999" stroke="#737679" stroke-width="4.58333" stroke-linecap="butt" stroke-linejoin="miter" stroke-miterlimit="8" stroke-opacity="1" fill="#FFFFFF" fill-opacity="1"/><rect x="1449.5" y="1577.5" width="857" height="30.9999" stroke="#737679" stroke-width="4.58333" stroke-linecap="butt" stroke-linejoin="miter" stroke-miterlimit="8" stroke-opacity="1" fill="#FFFFFF" fill-opacity="1"/><text fill="#FFFFFF" fill-opacity="1" font-family="Arial,Arial_MSFontService,sans-serif" font-style="normal" font-variant="normal" font-weight="400" font-stretch="normal" font-size="83" text-anchor="start" direction="ltr" writing-mode="lr-tb" unicode-bidi="normal" text-decoration="none" transform="matrix(1 0 0 1 2310.47 903)">,</text><path d="M1852.5 1106C1852.5 1091.92 1863.92 1080.5 1878 1080.5 1892.08 1080.5 1903.5 1091.92 1903.5 1106 1903.5 1120.08 1892.08 1131.5 1878 1131.5 1863.92 1131.5 1852.5 1120.08 1852.5 1106Z" stroke="#737679" stroke-width="4.58333" stroke-linecap="butt" stroke-linejoin="miter" stroke-miterlimit="8" stroke-opacity="1" fill="#FFFFFF" fill-rule="evenodd" fill-opacity="1"/><path d="M1852.5 1202C1852.5 1187.92 1863.92 1176.5 1878 1176.5 1892.08 1176.5 1903.5 1187.92 1903.5 1202 1903.5 1216.08 1892.08 1227.5 1878 1227.5 1863.92 1227.5 1852.5 1216.08 1852.5 1202Z" stroke="#737679" stroke-width="4.58333" stroke-linecap="butt" stroke-linejoin="miter" stroke-miterlimit="8" stroke-opacity="1" fill="#FFFFFF" fill-rule="evenodd" fill-opacity="1"/><path d="M1852.5 1298C1852.5 1283.92 1863.92 1272.5 1878 1272.5 1892.08 1272.5 1903.5 1283.92 1903.5 1298 1903.5 1312.08 1892.08 1323.5 1878 1323.5 1863.92 1323.5 1852.5 1312.08 1852.5 1298Z" stroke="#737679" stroke-width="4.58333" stroke-linecap="butt" stroke-linejoin="miter" stroke-miterlimit="8" stroke-opacity="1" fill="#FFFFFF" fill-rule="evenodd" fill-opacity="1"/><text fill="#FFFFFF" fill-opacity="1" font-family="Avenir Next,Avenir Next_MSFontService,sans-serif" font-style="normal" font-variant="normal" font-weight="400" font-stretch="normal" font-size="73" text-anchor="start" direction="ltr" writing-mode="lr-tb" unicode-bidi="normal" text-decoration="none" transform="matrix(1 0 0 1 2898.55 650)">RegEx<tspan fill="#FFFFFF" fill-opacity="1" font-family="Avenir Next,Avenir Next_MSFontService,sans-serif" font-style="normal" font-variant="normal" font-weight="400" font-stretch="normal" font-size="73" text-anchor="start" direction="ltr" writing-mode="lr-tb" unicode-bidi="normal" text-decoration="none" x="228.869" y="0">Matching</tspan></text><path d="M0.0208754-5.15621 276.782-4.03572 276.74 6.2767-0.0208754 5.15621ZM271.668-14.369 302.542 1.22487 271.542 16.5682Z" fill="#737679" fill-rule="nonzero" fill-opacity="1" transform="matrix(1 0 0 -1 2378 1208.22)"/><rect x="2741.5" y="840.5" width="857" height="29.9999" stroke="#737679" stroke-width="4.58333" stroke-linecap="butt" stroke-linejoin="miter" stroke-miterlimit="8" stroke-opacity="1" fill="#FFFFFF" fill-opacity="1"/><rect x="2746.5" y="1571.5" width="857" height="30.9999" stroke="#737679" stroke-width="4.58333" stroke-linecap="butt" stroke-linejoin="miter" stroke-miterlimit="8" stroke-opacity="1" fill="#FFFFFF" fill-opacity="1"/><text fill="#FFFFFF" fill-opacity="1" font-family="Arial,Arial_MSFontService,sans-serif" font-style="normal" font-variant="normal" font-weight="400" font-stretch="normal" font-size="83" text-anchor="start" direction="ltr" writing-mode="lr-tb" unicode-bidi="normal" text-decoration="none" transform="matrix(1 0 0 1 3607.83 896)">,</text><path d="M3149.5 1099.5C3149.5 1085.69 3160.92 1074.5 3175 1074.5 3189.08 1074.5 3200.5 1085.69 3200.5 1099.5 3200.5 1113.31 3189.08 1124.5 3175 1124.5 3160.92 1124.5 3149.5 1113.31 3149.5 1099.5Z" stroke="#737679" stroke-width="4.58333" stroke-linecap="butt" stroke-linejoin="miter" stroke-miterlimit="8" stroke-opacity="1" fill="#FFFFFF" fill-rule="evenodd" fill-opacity="1"/><path d="M3149.5 1196C3149.5 1181.92 3160.92 1170.5 3175 1170.5 3189.08 1170.5 3200.5 1181.92 3200.5 1196 3200.5 1210.08 3189.08 1221.5 3175 1221.5 3160.92 1221.5 3149.5 1210.08 3149.5 1196Z" stroke="#737679" stroke-width="4.58333" stroke-linecap="butt" stroke-linejoin="miter" stroke-miterlimit="8" stroke-opacity="1" fill="#FFFFFF" fill-rule="evenodd" fill-opacity="1"/><path d="M3149.5 1292C3149.5 1277.92 3160.92 1266.5 3175 1266.5 3189.08 1266.5 3200.5 1277.92 3200.5 1292 3200.5 1306.08 3189.08 1317.5 3175 1317.5 3160.92 1317.5 3149.5 1306.08 3149.5 1292Z" stroke="#737679" stroke-width="4.58333" stroke-linecap="butt" stroke-linejoin="miter" stroke-miterlimit="8" stroke-opacity="1" fill="#FFFFFF" fill-rule="evenodd" fill-opacity="1"/><rect x="2818" y="823" width="262" height="62.9999" fill="#FC8181" fill-opacity="1"/><path d="M4085.85 1360.41 4134.41 1311.85 4186 1363.44 4237.59 1311.85 4286.15 1360.41 4234.56 1412 4286.15 1463.59 4237.59 1512.15 4186 1460.56 4134.41 1512.15 4085.85 1463.59 4137.44 1412Z" fill="#9C9FA6" fill-rule="evenodd" fill-opacity="1"/><rect x="3260" y="1556" width="262" height="62.9999" fill="#FC8181" fill-opacity="1"/><path d="M4130.66 1050.75 4303.84 875.956 4345.93 917.659 4172.75 1092.46Z" fill="#FC8181" fill-rule="nonzero" fill-opacity="1"/><path d="M4104.27 944.637 4204.59 1042.67 4165.16 1083.02 4064.84 984.981Z" fill="#FC8181" fill-rule="nonzero" fill-opacity="1"/><text fill="#FC8181" fill-opacity="1" font-family="Avenir Next,Avenir Next_MSFontService,sans-serif" font-style="normal" font-variant="normal" font-weight="400" font-stretch="normal" font-size="55" text-anchor="start" direction="ltr" writing-mode="lr-tb" unicode-bidi="normal" text-decoration="none" transform="matrix(1 0 0 1 2409.58 1166)">Matching</text><path d="M0-5.15625 276.414-5.15625 276.414 222.749 271.258 217.593 333.634 217.593 333.634 227.906 266.101 227.906 266.101 0 271.258 5.15625 0 5.15625ZM328.477 207.281 359.415 222.749 328.477 238.218Z" fill="#737679" fill-rule="nonzero" fill-opacity="1" transform="matrix(1 0 0 -1 3681 1206.75)"/><text fill="#FC8181" fill-opacity="1" font-family="Avenir Next,Avenir Next_MSFontService,sans-serif" font-style="normal" font-variant="normal" font-weight="400" font-stretch="normal" font-size="55" text-anchor="start" direction="ltr" writing-mode="lr-tb" unicode-bidi="normal" text-decoration="none" transform="matrix(1 0 0 1 3699.99 1164)">Selection</text><path d="M3681 1201.84 3957.2 1201.84 3957.2 1402.7 3952.05 1397.54 4052.54 1397.54 4052.54 1407.85 3946.89 1407.85 3946.89 1207 3952.05 1212.16 3681 1212.16ZM4047.38 1387.23 4078.32 1402.7 4047.38 1418.17Z" fill="#737679" fill-rule="nonzero" fill-opacity="1"/><text fill="#FC8181" fill-opacity="1" font-family="Avenir Next,Avenir Next_MSFontService,sans-serif" font-style="normal" font-variant="normal" font-weight="400" font-stretch="normal" font-size="55" text-anchor="start" direction="ltr" writing-mode="lr-tb" unicode-bidi="normal" text-decoration="none" transform="matrix(1 0 0 1 1087 1159)">Transform<tspan fill="#FFFFFF" fill-opacity="1" font-family="Avenir Next,Avenir Next_MSFontService,sans-serif" font-style="normal" font-variant="normal" font-weight="400" font-stretch="normal" font-size="73" text-anchor="start" direction="ltr" writing-mode="lr-tb" unicode-bidi="normal" text-decoration="none" x="-854.354" y="-530">Medical</tspan><tspan fill="#FFFFFF" fill-opacity="1" font-family="Avenir Next,Avenir Next_MSFontService,sans-serif" font-style="normal" font-variant="normal" font-weight="400" font-stretch="normal" font-size="73" text-anchor="start" direction="ltr" writing-mode="lr-tb" unicode-bidi="normal" text-decoration="none" x="-570.187" y="-530">Document</tspan><tspan fill="#FFFFFF" fill-opacity="1" font-family="Avenir Next,Avenir Next_MSFontService,sans-serif" font-style="normal" font-variant="normal" font-weight="400" font-stretch="normal" font-size="73" text-anchor="start" direction="ltr" writing-mode="lr-tb" unicode-bidi="normal" text-decoration="none" x="617.988" y="-528">Sentences</tspan></text></g></svg>
