<svg width="3782" height="2315" xmlns="http://www.w3.org/2000/svg" xmlns:xlink="http://www.w3.org/1999/xlink" xml:space="preserve" overflow="hidden"><defs><clipPath id="clip0"><rect x="407" y="82" width="3782" height="2315"/></clipPath><clipPath id="clip1"><rect x="576" y="126" width="395" height="395"/></clipPath><clipPath id="clip2"><rect x="576" y="126" width="395" height="395"/></clipPath><clipPath id="clip3"><rect x="576" y="126" width="395" height="395"/></clipPath><clipPath id="clip4"><rect x="2003" y="129" width="394" height="394"/></clipPath><clipPath id="clip5"><rect x="2003" y="129" width="394" height="394"/></clipPath><clipPath id="clip6"><rect x="2003" y="129" width="394" height="394"/></clipPath><clipPath id="clip7"><rect x="3448" y="126" width="395" height="396"/></clipPath><clipPath id="clip8"><rect x="3448" y="126" width="395" height="396"/></clipPath><clipPath id="clip9"><rect x="3448" y="126" width="395" height="396"/></clipPath><clipPath id="clip10"><rect x="557" y="953" width="395" height="395"/></clipPath><clipPath id="clip11"><rect x="557" y="953" width="395" height="395"/></clipPath><clipPath id="clip12"><rect x="557" y="953" width="395" height="395"/></clipPath><clipPath id="clip13"><rect x="3448" y="949" width="395" height="395"/></clipPath><clipPath id="clip14"><rect x="3448" y="949" width="395" height="395"/></clipPath><clipPath id="clip15"><rect x="3448" y="949" width="395" height="395"/></clipPath><clipPath id="clip16"><rect x="3448" y="1724" width="395" height="394"/></clipPath><clipPath id="clip17"><rect x="3448" y="1724" width="395" height="394"/></clipPath><clipPath id="clip18"><rect x="3448" y="1724" width="395" height="394"/></clipPath><clipPath id="clip19"><rect x="2018" y="1732" width="395" height="395"/></clipPath><clipPath id="clip20"><rect x="2018" y="1732" width="395" height="395"/></clipPath><clipPath id="clip21"><rect x="2018" y="1732" width="395" height="395"/></clipPath><clipPath id="clip22"><rect x="556" y="1724" width="396" height="394"/></clipPath><clipPath id="clip23"><rect x="556" y="1724" width="396" height="394"/></clipPath><clipPath id="clip24"><rect x="556" y="1724" width="396" height="394"/></clipPath></defs><g clip-path="url(#clip0)" transform="translate(-407 -82)"><path d="M494 168.501C494 125.146 529.146 90.0001 572.501 90.0001L973.499 90.0001C1016.85 90.0001 1052 125.146 1052 168.501L1052 482.499C1052 525.854 1016.85 561 973.499 561L572.501 561C529.146 561 494 525.854 494 482.499Z" stroke="#737679" stroke-width="10.3125" stroke-linecap="butt" stroke-linejoin="miter" stroke-miterlimit="8" stroke-opacity="1" fill="#9C9FA6" fill-rule="evenodd" fill-opacity="1"/><text fill="#FC8181" fill-opacity="1" font-family="Avenir Next,Avenir Next_MSFontService,sans-serif" font-style="normal" font-variant="normal" font-weight="400" font-stretch="normal" font-size="115" text-anchor="start" direction="ltr" writing-mode="lr-tb" unicode-bidi="normal" text-decoration="none" transform="matrix(1 0 0 1 509.5 718)">Condition</text><g clip-path="url(#clip1)"><g clip-path="url(#clip2)"><g clip-path="url(#clip3)"><path d="M773 232.708C793.4 232.708 809.938 216.171 809.938 195.771 809.938 175.371 793.4 158.833 773 158.833 752.6 158.833 736.063 175.371 736.063 195.771 736.063 216.171 752.6 232.708 773 232.708ZM793.521 195.771C793.521 207.104 784.333 216.292 773 216.292 761.667 216.292 752.479 207.104 752.479 195.771 752.479 184.438 761.667 175.25 773 175.25 784.333 175.25 793.521 184.438 793.521 195.771Z" fill="#FFFFFF" fill-rule="evenodd" fill-opacity="1"/><path d="M674.5 298.375 693.824 298.375C699.612 303.484 707.215 306.583 715.542 306.583 716.931 306.583 718.301 306.497 719.646 306.33L719.646 339.32 719.646 339.379 719.645 363.351C719.551 363.888 719.336 364.958 718.878 366.687 718.086 369.678 716.858 373.596 715.229 378.303 712.96 384.857 710.114 392.37 707.044 400.115 702.546 405.35 699.67 412.018 699.195 419.341 696.008 426.958 692.978 434.001 690.528 439.628 688.821 443.545 687.401 446.764 686.411 448.996 684.101 454.202 682.476 460.544 683.363 466.914 684.306 473.699 688.041 479.875 695.106 483.917 706.112 490.212 720.099 487.122 727.427 476.776L739.74 459.393C740.076 458.92 740.394 458.435 740.695 457.939L744.353 451.914C756.342 447.022 764.792 435.248 764.792 421.5 764.792 420.481 764.745 419.472 764.655 418.476L775.051 401.351 809.409 457.939C809.709 458.434 810.028 458.919 810.364 459.393L822.676 476.776C830.005 487.122 843.992 490.212 854.997 483.917 862.063 479.875 865.797 473.699 866.741 466.914 867.627 460.544 866.002 454.202 863.692 448.996 862.702 446.764 861.282 443.545 859.576 439.628 856.159 431.78 851.619 421.187 847.093 410.124 842.544 399.003 838.121 387.682 834.875 378.303 833.245 373.596 832.017 369.678 831.225 366.687L831.087 366.158 831.087 340.975C840.633 334.296 846.875 323.221 846.875 310.688 846.875 306.37 846.135 302.227 844.773 298.375L871.5 298.375C885.1 298.375 896.125 287.351 896.125 273.75 896.125 260.15 885.1 249.125 871.5 249.125L737.259 249.125C731.472 244.016 723.868 240.917 715.542 240.917 707.215 240.917 699.612 244.016 693.824 249.125L674.5 249.125C660.9 249.125 649.875 260.15 649.875 273.75 649.875 287.351 660.9 298.375 674.5 298.375ZM683.743 265.542 674.5 265.542C669.967 265.542 666.292 269.217 666.292 273.75 666.292 278.284 669.967 281.958 674.5 281.958L683.743 281.958C683.068 279.335 682.708 276.584 682.708 273.75 682.708 270.916 683.068 268.165 683.743 265.542ZM736.063 339.358 736.063 299.382C743.569 293.365 748.375 284.119 748.375 273.75 748.375 270.916 748.016 268.165 747.341 265.542L871.5 265.542C876.034 265.542 879.708 269.217 879.708 273.75 879.708 278.284 876.034 281.958 871.5 281.958L833.156 281.958C826.812 276.825 818.734 273.75 809.938 273.75 789.537 273.75 773 290.287 773 310.688 773 331.088 789.537 347.625 809.938 347.625 811.542 347.625 813.121 347.523 814.671 347.325L814.671 367.159C814.671 367.801 814.746 368.442 814.895 369.067 815.027 369.614 815.179 370.219 815.355 370.888 816.292 374.429 817.664 378.77 819.362 383.673 822.752 393.469 827.304 405.109 831.899 416.34 836.486 427.552 841.077 438.266 844.525 446.183 846.248 450.139 847.683 453.392 848.687 455.654 850.261 459.203 850.8 462.351 850.48 464.653 850.218 466.541 849.376 468.219 846.846 469.667 843.177 471.765 838.515 470.735 836.072 467.286L823.76 449.903C823.648 449.747 823.542 449.585 823.442 449.419L782.068 381.275C780.58 378.823 777.919 377.326 775.051 377.326 772.183 377.326 769.524 378.823 768.036 381.275L756.711 399.927C750.691 393.027 741.834 388.667 731.958 388.667 730.935 388.667 729.922 388.714 728.922 388.806 729.558 387.05 730.167 385.335 730.742 383.673 732.439 378.77 733.811 374.429 734.748 370.888 735.475 368.143 735.774 366.477 735.905 365.647 736.008 365.128 736.062 364.591 736.062 364.042L736.062 339.417 736.063 339.358ZM705.578 446.183C706.04 445.123 706.522 444.013 707.022 442.859 711.367 447.928 717.232 451.657 723.91 453.339L714.031 467.286C711.589 470.735 706.926 471.765 703.257 469.667 700.727 468.219 699.885 466.541 699.623 464.653 699.302 462.351 699.842 459.204 701.417 455.654 702.421 453.392 703.856 450.139 705.578 446.183ZM715.542 290.167C724.609 290.167 731.958 282.817 731.958 273.75 731.958 264.683 724.609 257.333 715.542 257.333 706.475 257.333 699.125 264.683 699.125 273.75 699.125 282.817 706.475 290.167 715.542 290.167ZM809.938 331.208C821.271 331.208 830.458 322.021 830.458 310.688 830.458 299.354 821.271 290.167 809.938 290.167 798.604 290.167 789.417 299.354 789.417 310.688 789.417 322.021 798.604 331.208 809.938 331.208ZM731.958 437.917C741.025 437.917 748.375 430.567 748.375 421.5 748.375 412.433 741.025 405.083 731.958 405.083 722.891 405.083 715.542 412.433 715.542 421.5 715.542 430.567 722.891 437.917 731.958 437.917Z" fill="#FFFFFF" fill-rule="evenodd" fill-opacity="1"/><path d="M821.686 183.459C879.366 203.582 920.75 258.458 920.75 322.999 920.75 368.338 900.329 408.907 868.183 436.009L878.508 448.778C914.37 418.663 937.167 373.494 937.167 322.999 937.167 251.292 891.192 190.323 827.111 167.96L821.686 183.459Z" fill="#FFFFFF" fill-rule="nonzero" fill-opacity="1"/><path d="M800.893 468.121C791.86 469.846 782.536 470.749 773 470.749 765.852 470.749 758.823 470.242 751.946 469.261L749.663 485.52C757.285 486.605 765.077 487.166 773 487.166 783.539 487.166 793.845 486.174 803.831 484.276L800.893 468.121Z" fill="#FFFFFF" fill-rule="nonzero" fill-opacity="1"/><path d="M625.25 322.999C625.25 370.423 647.592 412.628 682.325 439.662L672.446 452.776C633.742 422.745 608.833 375.781 608.833 322.999 608.833 251.292 654.808 190.323 718.889 167.96L724.314 183.459C666.634 203.582 625.25 258.458 625.25 322.999Z" fill="#FFFFFF" fill-rule="nonzero" fill-opacity="1"/></g></g></g><path d="M1921 169.502C1921 126.146 1956.15 91.0001 1999.5 91.0001L2400.5 91.0001C2443.85 91.0001 2479 126.146 2479 169.502L2479 483.499C2479 526.854 2443.85 562.001 2400.5 562.001L1999.5 562.001C1956.15 562.001 1921 526.854 1921 483.499Z" stroke="#737679" stroke-width="10.3125" stroke-linecap="butt" stroke-linejoin="miter" stroke-miterlimit="8" stroke-opacity="1" fill="#9C9FA6" fill-rule="evenodd" fill-opacity="1"/><text fill="#FC8181" fill-opacity="1" font-family="Avenir Next,Avenir Next_MSFontService,sans-serif" font-style="normal" font-variant="normal" font-weight="400" font-stretch="normal" font-size="115" text-anchor="start" direction="ltr" writing-mode="lr-tb" unicode-bidi="normal" text-decoration="none" transform="matrix(1 0 0 1 1821.59 723)">Imaging Study</text><g clip-path="url(#clip4)"><g clip-path="url(#clip5)"><g clip-path="url(#clip6)"><path d="M312.878 256.702C322.221 238.676 327.5 218.204 327.5 196.5 327.5 124.15 268.85 65.5 196.5 65.5 124.15 65.5 65.5 124.15 65.5 196.5 65.5 218.205 70.7785 238.676 80.1218 256.702L71.4796 274.571C57.3136 251.934 49.125 225.173 49.125 196.5 49.125 115.107 115.107 49.125 196.5 49.125 277.893 49.125 343.875 115.107 343.875 196.5 343.875 225.173 335.687 251.934 321.521 274.571L312.878 256.702Z" fill="#FFFFFF" fill-rule="nonzero" fill-opacity="1" transform="matrix(1.00254 0 0 1 2003 130)"/><path d="M196.5 139.187C173.891 139.187 155.562 157.516 155.562 180.125 155.562 202.734 173.891 221.062 196.5 221.062 219.109 221.062 237.437 202.734 237.437 180.125 237.437 157.516 219.109 139.187 196.5 139.187ZM171.937 180.125C171.937 166.559 182.934 155.562 196.5 155.562 210.066 155.562 221.062 166.559 221.062 180.125 221.062 193.691 210.066 204.687 196.5 204.687 182.934 204.687 171.937 193.691 171.937 180.125Z" fill="#FFFFFF" fill-rule="evenodd" fill-opacity="1" transform="matrix(1.00254 0 0 1 2003 130)"/><path d="M115.102 206.76C115.441 205.957 115.81 205.173 116.207 204.408 115.169 199.204 114.625 193.822 114.625 188.312 114.625 143.095 151.282 106.437 196.5 106.437 241.718 106.437 278.375 143.095 278.375 188.312 278.375 193.821 277.83 199.203 276.794 204.407 277.19 205.172 277.559 205.957 277.898 206.76L316.602 298.384C325.722 319.974 309.871 343.877 286.432 343.877L258.453 343.877C258.099 343.883 257.744 343.883 257.391 343.877L135.61 343.877C135.256 343.883 134.901 343.883 134.547 343.877L106.568 343.877C83.1301 343.877 67.2791 319.974 76.3993 298.384L115.102 206.76ZM196.5 122.812C160.325 122.812 131 152.138 131 188.312 131 188.881 131.007 189.449 131.022 190.015 134.82 188.178 138.996 187.065 143.343 186.81 143.618 192.533 144.796 198.019 146.739 203.129L145.271 203.129C138.69 203.129 132.747 207.068 130.186 213.131L91.4838 304.755C86.9234 315.55 94.8489 327.502 106.568 327.502L109.203 327.502C105.805 320.333 105.384 311.796 108.755 303.93L129.065 256.542C136.161 239.985 152.441 229.25 170.455 229.25L222.544 229.25C240.559 229.25 256.839 239.985 263.935 256.542L284.245 303.93C287.615 311.796 287.195 320.333 283.797 327.502L286.432 327.502C298.152 327.502 306.077 315.55 301.517 304.755L262.815 213.131C260.254 207.068 254.311 203.129 247.73 203.129L246.261 203.129C248.204 198.019 249.382 192.533 249.657 186.81 254.005 187.065 258.18 188.178 261.979 190.015 261.993 189.449 262 188.881 262 188.312 262 152.138 232.675 122.812 196.5 122.812ZM262.743 326.507C261.235 327.154 259.667 327.475 258.118 327.502L257.699 327.502C254.78 327.452 251.957 326.357 249.762 324.418 249.467 324.157 249.155 323.92 248.833 323.708L232.758 283.522C231.079 279.323 226.314 277.281 222.115 278.96 217.917 280.64 215.875 285.405 217.554 289.603L232.713 327.5 160.287 327.5 175.446 289.603C177.125 285.405 175.083 280.64 170.885 278.96 166.686 277.281 161.921 279.323 160.242 283.522L144.168 323.707C143.845 323.92 143.534 324.156 143.238 324.417 141.043 326.357 138.219 327.452 135.3 327.502L134.882 327.502C133.333 327.475 131.765 327.154 130.256 326.507 124.022 323.835 121.134 316.615 123.806 310.381L144.116 262.992C148.632 252.457 158.991 245.625 170.455 245.625L222.544 245.625C234.008 245.625 244.368 252.457 248.884 262.992L269.194 310.381C271.866 316.615 268.978 323.835 262.743 326.507Z" fill="#FFFFFF" fill-rule="evenodd" fill-opacity="1" transform="matrix(1.00254 0 0 1 2003 130)"/><path d="M158.643 101.373C170.597 96.5191 183.391 94.0678 196.293 94.1587 209.195 94.2496 221.952 96.8802 233.838 101.902L240.211 86.8178C226.344 80.9595 211.46 77.8899 196.408 77.7841 181.356 77.6782 166.43 80.5382 152.482 86.2004L158.643 101.373Z" fill="#FFFFFF" fill-rule="nonzero" fill-opacity="1" transform="matrix(1.00254 0 0 1 2003 130)"/></g></g></g><path d="M3361 169.502C3361 126.146 3396.15 91.0001 3439.5 91.0001L3840.5 91.0001C3883.85 91.0001 3919 126.146 3919 169.502L3919 483.499C3919 526.854 3883.85 562.001 3840.5 562.001L3439.5 562.001C3396.15 562.001 3361 526.854 3361 483.499Z" stroke="#737679" stroke-width="10.3125" stroke-linecap="butt" stroke-linejoin="miter" stroke-miterlimit="8" stroke-opacity="1" fill="#9C9FA6" fill-rule="evenodd" fill-opacity="1"/><text fill="#FC8181" fill-opacity="1" font-family="Avenir Next,Avenir Next_MSFontService,sans-serif" font-style="normal" font-variant="normal" font-weight="400" font-stretch="normal" font-size="115" text-anchor="start" direction="ltr" writing-mode="lr-tb" unicode-bidi="normal" text-decoration="none" transform="matrix(1 0 0 1 3174.41 723)">Diagnostic<tspan fill="#FC8181" fill-opacity="1" font-family="Avenir Next,Avenir Next_MSFontService,sans-serif" font-style="normal" font-variant="normal" font-weight="400" font-stretch="normal" font-size="115" text-anchor="start" direction="ltr" writing-mode="lr-tb" unicode-bidi="normal" text-decoration="none" x="586.667" y="0">Report</tspan></text><g clip-path="url(#clip7)"><g clip-path="url(#clip8)"><g clip-path="url(#clip9)"><path d="M162.299 68.142 174.532 61.1816 182.582 75.124C193.457 71.5638 205.739 75.9515 211.71 86.2203L248.834 150.055C255.671 161.812 251.648 176.825 239.849 183.588L232.884 187.58 238.442 198.322 216.494 209.504 211.494 199.84 206.018 202.979C194.218 209.742 179.111 205.694 172.274 193.937L148.291 152.698C127.254 164.798 112.746 178.309 104.965 193.759 98.4154 206.763 96.2624 221.88 99.8856 240.031 111.641 233.532 125.159 229.833 139.542 229.833 166.38 229.833 190.211 242.714 205.188 262.631L304.395 206.724 312.544 220.975 213.697 276.678C218.78 287.356 221.625 299.304 221.625 311.917 221.625 317.538 221.059 323.029 219.983 328.333L328.333 328.333C332.867 328.333 336.542 332.008 336.542 336.542 336.542 341.075 332.867 344.75 328.333 344.75L64.2884 344.75C59.8954 334.696 57.4583 323.591 57.4583 311.917 57.4583 287.329 68.2688 265.267 85.3962 250.223 79.1463 226.194 80.922 205.001 90.3023 186.375 100.032 167.057 117.438 151.517 140.038 138.507L135.15 130.102C129.897 121.07 131.055 110.114 137.225 102.456L128.514 87.3662 140.894 80.322 130.706 62.0385 152.294 50.1858 162.299 68.142ZM234.591 158.219 197.467 94.3835C195.188 90.4649 190.153 89.1154 186.219 91.3702L152.389 110.762C148.455 113.016 147.115 118.02 149.393 121.939L186.517 185.773C188.796 189.693 193.832 191.042 197.765 188.788L231.596 169.396C235.529 167.142 236.869 162.138 234.591 158.219ZM203.144 328.333C204.49 323.096 205.208 317.598 205.208 311.917 205.208 302.233 203.113 293.04 199.349 284.764L159.916 306.987 151.768 292.735 190.729 270.779C178.693 255.822 160.235 246.25 139.542 246.25 103.275 246.25 73.875 275.65 73.875 311.917 73.875 317.598 74.593 323.096 75.9396 328.333L203.144 328.333Z" fill="#FFFFFF" fill-rule="evenodd" fill-opacity="1" transform="matrix(1 0 0 1 3448 127)"/></g></g></g><path d="M476 993.668C476 950.221 511.221 915 554.668 915L954.332 915C997.779 915 1033 950.221 1033 993.668L1033 1308.33C1033 1351.78 997.779 1387 954.332 1387L554.668 1387C511.221 1387 476 1351.78 476 1308.33Z" stroke="#737679" stroke-width="10.3125" stroke-linecap="butt" stroke-linejoin="miter" stroke-miterlimit="8" stroke-opacity="1" fill="#9C9FA6" fill-rule="evenodd" fill-opacity="1"/><text fill="#FC8181" fill-opacity="1" font-family="Avenir Next,Avenir Next_MSFontService,sans-serif" font-style="normal" font-variant="normal" font-weight="400" font-stretch="normal" font-size="115" text-anchor="start" direction="ltr" writing-mode="lr-tb" unicode-bidi="normal" text-decoration="none" transform="matrix(1 0 0 1 481.734 1534)">Procedure</text><g clip-path="url(#clip10)"><g clip-path="url(#clip11)"><g clip-path="url(#clip12)"><path d="M755 1249.5C761.618 1249.5 767.779 1251.46 772.934 1254.83L787.845 986.833 796.042 987.289 804.237 986.833 819.148 1254.83C824.304 1251.46 830.465 1249.5 837.083 1249.5 855.216 1249.5 869.917 1264.2 869.917 1282.33 869.917 1300.47 855.216 1315.17 837.083 1315.17 819.032 1315.17 804.384 1300.6 804.251 1282.58L802.415 1249.6 789.667 1249.6 787.832 1282.58C787.699 1300.6 773.05 1315.17 755 1315.17 736.866 1315.17 722.167 1300.47 722.167 1282.33 722.167 1264.2 736.866 1249.5 755 1249.5ZM796.042 1135.04 801.502 1233.18 790.581 1233.18 796.042 1135.04ZM796.042 1110.24C800.575 1110.24 804.25 1106.57 804.25 1102.05 804.25 1097.52 800.575 1093.85 796.042 1093.85 791.508 1093.85 787.833 1097.52 787.833 1102.05 787.833 1106.57 791.508 1110.24 796.042 1110.24ZM755 1265.92C745.933 1265.92 738.583 1273.27 738.583 1282.33 738.583 1291.4 745.933 1298.75 755 1298.75 764.067 1298.75 771.417 1291.4 771.417 1282.33 771.417 1273.27 764.067 1265.92 755 1265.92ZM820.667 1282.33C820.667 1273.27 828.016 1265.92 837.083 1265.92 846.15 1265.92 853.5 1273.27 853.5 1282.33 853.5 1291.4 846.15 1298.75 837.083 1298.75 828.016 1298.75 820.667 1291.4 820.667 1282.33Z" fill="#FFFFFF" fill-rule="evenodd" fill-opacity="1"/><path d="M689.333 988.752 676.902 996.211 681.125 1003.25C676.902 996.211 676.89 996.218 676.89 996.218L676.878 996.226 676.852 996.242 676.791 996.279 676.64 996.374C676.526 996.446 676.385 996.537 676.22 996.648 675.891 996.87 675.464 997.171 674.951 997.56 673.925 998.336 672.562 999.46 670.967 1000.99 667.772 1004.07 663.674 1008.76 659.512 1015.57 651.17 1029.21 642.753 1051.05 640.606 1084.79 639.952 1095.07 645.9 1103.73 654.386 1107.68 650.624 1111.4 648.292 1116.56 648.292 1122.27L648.292 1294.65C648.292 1305.98 657.479 1315.17 668.812 1315.17 680.146 1315.17 689.333 1305.98 689.333 1294.65L689.333 1122.27C689.333 1114.94 685.485 1108.5 679.697 1104.87 685.557 1100.37 689.333 1093.29 689.333 1085.33L689.333 988.752ZM656.99 1085.83C658.93 1055.34 666.283 1036.37 672.917 1025.13L672.917 1085.33C672.917 1089.87 669.242 1093.54 664.708 1093.54 660.041 1093.54 656.736 1089.82 656.99 1085.83ZM672.917 1122.97 672.917 1122.27C672.917 1120 671.079 1118.17 668.812 1118.17 666.545 1118.17 664.708 1120 664.708 1122.27L664.708 1131.18 672.917 1122.97ZM672.917 1146.19 672.917 1155.81 664.708 1164.02 664.708 1154.4 672.917 1146.19ZM672.917 1188.64 672.917 1179.02 664.708 1187.23 664.708 1196.85 672.917 1188.64ZM672.917 1211.86 672.917 1294.65C672.917 1296.91 671.079 1298.75 668.812 1298.75 666.545 1298.75 664.708 1296.91 664.708 1294.65L664.708 1220.07 672.917 1211.86Z" fill="#FFFFFF" fill-rule="evenodd" fill-opacity="1"/></g></g></g><path d="M3366 990.335C3366 947.624 3400.62 913 3443.33 913L3845.67 913C3888.38 913 3923 947.624 3923 990.335L3923 1299.67C3923 1342.38 3888.38 1377 3845.67 1377L3443.33 1377C3400.62 1377 3366 1342.38 3366 1299.67Z" stroke="#737679" stroke-width="10.3125" stroke-linecap="butt" stroke-linejoin="miter" stroke-miterlimit="8" stroke-opacity="1" fill="#9C9FA6" fill-rule="evenodd" fill-opacity="1"/><text fill="#FC8181" fill-opacity="1" font-family="Avenir Next,Avenir Next_MSFontService,sans-serif" font-style="normal" font-variant="normal" font-weight="400" font-stretch="normal" font-size="115" text-anchor="start" direction="ltr" writing-mode="lr-tb" unicode-bidi="normal" text-decoration="none" transform="matrix(1 0 0 1 3393.84 1534)">Care Plan</text><g clip-path="url(#clip13)"><g clip-path="url(#clip14)"><g clip-path="url(#clip15)"><path d="M3768.13 1014.67 3521.88 1014.67C3517.34 1014.67 3513.67 1018.34 3513.67 1022.88L3513.67 1269.13C3513.67 1273.66 3517.34 1277.33 3521.88 1277.33L3768.13 1277.33C3772.66 1277.33 3776.33 1273.66 3776.33 1269.13L3776.33 1022.88C3776.33 1018.34 3772.66 1014.67 3768.13 1014.67ZM3521.88 998.25C3508.28 998.25 3497.25 1009.28 3497.25 1022.88L3497.25 1269.13C3497.25 1282.73 3508.28 1293.75 3521.88 1293.75L3768.13 1293.75C3781.73 1293.75 3792.75 1282.73 3792.75 1269.13L3792.75 1022.88C3792.75 1009.28 3781.73 998.25 3768.13 998.25L3521.88 998.25Z" fill="#FFFFFF" fill-rule="evenodd" fill-opacity="1"/><path d="M3706.37 1061.83C3706.37 1078.81 3692.6 1092.58 3675.62 1092.58 3658.64 1092.58 3644.87 1078.81 3644.87 1061.83 3644.87 1044.85 3658.64 1031.08 3675.62 1031.08 3692.6 1031.08 3706.37 1044.85 3706.37 1061.83ZM3562.92 1195.25 3610.76 1195.25 3646.82 1230.84 3663.78 1269.94C3667.39 1278.26 3677.06 1282.08 3685.37 1278.47 3693.69 1274.87 3697.51 1265.2 3693.9 1256.88L3675.68 1214.86C3674.84 1212.93 3673.64 1211.18 3672.15 1209.7L3657.5 1195.25 3727.08 1195.25C3736.15 1195.25 3743.5 1202.6 3743.5 1211.67L3743.5 1277.33 3759.92 1277.33 3759.92 1211.67C3759.92 1193.53 3745.22 1178.83 3727.08 1178.83L3701.41 1178.83C3708.49 1177.14 3713.82 1170.86 3714 1163.24 3714.21 1154.18 3707.03 1146.66 3697.96 1146.45 3683.57 1146.12 3679.24 1143.72 3676.15 1140.94 3674.07 1139.06 3671.75 1136.21 3668.53 1131.28 3666.22 1127.73 3663.84 1123.73 3660.91 1118.83L3660.91 1118.83 3660.91 1118.82C3659.67 1116.75 3658.34 1114.51 3656.87 1112.07L3656.52 1111.49C3655.5 1109.8 3654.18 1107.6 3652.86 1105.82 3651.26 1103.66 3648.29 1100.15 3643.32 1098.08 3638.32 1096 3633.68 1096.37 3630.82 1096.81 3628.1 1097.24 3625.17 1098.08 3622.77 1098.77 3615.65 1100.81 3609.71 1106.22 3605.83 1110.45 3601.36 1115.31 3597.02 1121.46 3593.51 1128.25 3586.9 1141.04 3581.15 1160.37 3589.3 1178.41 3589.36 1178.55 3589.43 1178.69 3589.5 1178.83L3562.92 1178.83C3544.78 1178.83 3530.08 1193.53 3530.08 1211.67L3530.08 1277.33 3546.5 1277.33 3546.5 1211.67C3546.5 1202.6 3553.85 1195.25 3562.92 1195.25ZM3688.75 1178.83 3640.86 1178.83 3633.02 1171.09 3645.44 1155.57C3648.05 1159.07 3650.91 1162.39 3654.19 1165.34 3663.83 1174.02 3674.95 1177.64 3688.75 1178.83ZM3586.49 1195.96 3613.38 1221.75 3606.58 1244.71C3606.16 1246.12 3605.56 1247.46 3604.79 1248.7L3590.29 1272.07C3585.51 1279.77 3575.39 1282.14 3567.69 1277.36 3559.99 1272.58 3557.62 1262.46 3562.39 1254.76L3575.73 1233.27 3584.78 1202.71 3586.49 1195.96Z" fill="#FFFFFF" fill-rule="evenodd" fill-opacity="1"/></g></g></g><path d="M3366 1764.5C3366 1721.15 3401.15 1686 3444.5 1686L3844.5 1686C3887.85 1686 3923 1721.15 3923 1764.5L3923 2078.5C3923 2121.85 3887.85 2157 3844.5 2157L3444.5 2157C3401.15 2157 3366 2121.85 3366 2078.5Z" stroke="#737679" stroke-width="10.3125" stroke-linecap="butt" stroke-linejoin="miter" stroke-miterlimit="8" stroke-opacity="1" fill="#9C9FA6" fill-rule="evenodd" fill-opacity="1"/><text fill="#FC8181" fill-opacity="1" font-family="Avenir Next,Avenir Next_MSFontService,sans-serif" font-style="normal" font-variant="normal" font-weight="400" font-stretch="normal" font-size="115" text-anchor="start" direction="ltr" writing-mode="lr-tb" unicode-bidi="normal" text-decoration="none" transform="matrix(1 0 0 1 3348.86 2287)">Many More</text><g clip-path="url(#clip16)"><g clip-path="url(#clip17)"><g clip-path="url(#clip18)"><path d="M196.5 343.875C277.893 343.875 343.875 277.893 343.875 196.5 343.875 115.107 277.893 49.125 196.5 49.125 115.107 49.125 49.125 115.107 49.125 196.5 49.125 277.893 115.107 343.875 196.5 343.875ZM196.5 360.25C286.937 360.25 360.25 286.937 360.25 196.5 360.25 106.063 286.937 32.75 196.5 32.75 106.063 32.75 32.75 106.063 32.75 196.5 32.75 286.937 106.063 360.25 196.5 360.25Z" fill="#FFFFFF" fill-rule="evenodd" fill-opacity="1" transform="matrix(1.00254 0 0 1 3448 1725)"/><path d="M106.437 196.5C106.437 191.978 110.103 188.312 114.625 188.312L278.375 188.312C282.897 188.312 286.562 191.978 286.562 196.5 286.562 201.022 282.897 204.687 278.375 204.687L114.625 204.687C110.103 204.687 106.437 201.022 106.437 196.5Z" fill="#FFFFFF" fill-rule="evenodd" fill-opacity="1" transform="matrix(1.00254 0 0 1 3448 1725)"/><path d="M196.5 106.437C201.022 106.437 204.687 110.103 204.687 114.625L204.687 278.375C204.687 282.897 201.022 286.562 196.5 286.562 191.978 286.562 188.312 282.897 188.312 278.375L188.312 114.625C188.312 110.103 191.978 106.437 196.5 106.437Z" fill="#FFFFFF" fill-rule="evenodd" fill-opacity="1" transform="matrix(1.00254 0 0 1 3448 1725)"/></g></g></g><path d="M1938 1771.67C1938 1728.22 1973.22 1693 2016.67 1693L2417.33 1693C2460.78 1693 2496 1728.22 2496 1771.67L2496 2086.33C2496 2129.78 2460.78 2165 2417.33 2165L2016.67 2165C1973.22 2165 1938 2129.78 1938 2086.33Z" stroke="#737679" stroke-width="10.3125" stroke-linecap="butt" stroke-linejoin="miter" stroke-miterlimit="8" stroke-opacity="1" fill="#9C9FA6" fill-rule="evenodd" fill-opacity="1"/><text fill="#FC8181" fill-opacity="1" font-family="Avenir Next,Avenir Next_MSFontService,sans-serif" font-style="normal" font-variant="normal" font-weight="400" font-stretch="normal" font-size="115" text-anchor="start" direction="ltr" writing-mode="lr-tb" unicode-bidi="normal" text-decoration="none" transform="matrix(1 0 0 1 1888.78 2287)">Observation</text><g clip-path="url(#clip19)"><g clip-path="url(#clip20)"><g clip-path="url(#clip21)"><path d="M55.8236 109.418C52.124 113.118 52.124 119.116 55.8236 122.816 59.5233 126.516 65.5217 126.516 69.2213 122.816L75.9245 116.113 109.415 149.603 82.6193 176.399C78.9193 180.099 78.9193 186.097 82.6193 189.797 86.3184 193.497 92.3166 193.497 96.0165 189.797L109.411 176.401 223.295 290.288C237.029 304.023 257.1 307.56 274.097 300.9L283.583 310.386C288.544 315.347 295.571 316.982 301.893 315.291L323.779 337.178C327.478 340.878 333.476 340.878 337.176 337.178 340.876 333.478 340.876 327.48 337.176 323.78L315.287 301.89C316.973 295.57 315.337 288.548 310.379 283.59L300.894 274.105C307.555 257.106 304.018 237.033 290.284 223.298L176.4 109.411 189.8 96.0108C193.5 92.3109 193.5 86.3127 189.8 82.6128 186.101 78.9131 180.102 78.9131 176.403 82.6128L149.607 109.409 116.118 75.9185 122.812 69.2237C126.512 65.524 126.512 59.5255 122.812 55.8257 119.113 52.1259 113.114 52.1259 109.415 55.8257L55.8236 109.418ZM138.028 120.988 104.539 87.4974 87.5032 104.533 120.993 138.024 138.028 120.988ZM164.821 120.991 120.99 164.823 157.064 200.898 200.895 157.065 164.821 120.991ZM170.461 214.296 190.558 234.393 205.777 219.175C209.477 215.475 215.475 215.475 219.175 219.175 222.875 222.875 222.875 228.873 219.175 232.573L203.956 247.791 217.35 261.186 232.57 245.966C236.27 242.266 242.268 242.266 245.968 245.966 249.667 249.666 249.667 255.664 245.968 259.364L230.748 274.584 234.874 278.709C243.865 287.7 257.005 290.012 268.13 285.646L285.642 268.134C290.008 257.008 287.696 243.868 278.705 234.877L214.292 170.463 170.461 214.296ZM299.027 295.429C298.959 295.338 298.882 295.251 298.801 295.169L292.053 288.421C291.483 289.056 290.894 289.678 290.284 290.288 289.673 290.899 289.05 291.489 288.415 292.06L295.162 298.807C295.246 298.89 295.333 298.966 295.424 299.036 295.838 298.301 296.357 297.609 296.983 296.984 297.607 296.361 298.295 295.842 299.027 295.429Z" fill="#FFFFFF" fill-rule="evenodd" fill-opacity="1" transform="matrix(1 0 0 1.00254 2019 1732)"/></g></g></g><path d="M475 1764.5C475 1721.15 510.146 1686 553.501 1686L953.499 1686C996.854 1686 1032 1721.15 1032 1764.5L1032 2078.5C1032 2121.85 996.854 2157 953.499 2157L553.501 2157C510.146 2157 475 2121.85 475 2078.5Z" stroke="#737679" stroke-width="10.3125" stroke-linecap="butt" stroke-linejoin="miter" stroke-miterlimit="8" stroke-opacity="1" fill="#9C9FA6" fill-rule="evenodd" fill-opacity="1"/><text fill="#FC8181" fill-opacity="1" font-family="Avenir Next,Avenir Next_MSFontService,sans-serif" font-style="normal" font-variant="normal" font-weight="400" font-stretch="normal" font-size="115" text-anchor="start" direction="ltr" writing-mode="lr-tb" unicode-bidi="normal" text-decoration="none" transform="matrix(1 0 0 1 573.568 2285)">Patient</text><g clip-path="url(#clip22)"><g clip-path="url(#clip23)"><g clip-path="url(#clip24)"><path d="M171.937 81.875C162.894 81.875 155.562 89.2061 155.562 98.25L131 98.25C121.956 98.25 114.625 105.581 114.625 114.625L114.625 294.75C114.625 303.794 121.956 311.125 131 311.125L262 311.125C271.044 311.125 278.375 303.794 278.375 294.75L278.375 114.625C278.375 105.581 271.044 98.25 262 98.25L237.437 98.25C237.437 89.2061 230.106 81.875 221.062 81.875L171.937 81.875ZM171.937 98.25 221.062 98.25 221.062 114.625 171.937 114.625 171.937 98.25ZM201.062 229.25 180.647 283.689C179.06 287.922 181.205 292.642 185.439 294.229 189.672 295.818 194.392 293.672 195.98 289.438L206.282 261.963 227.657 261.963 237.96 289.438C239.547 293.672 244.267 295.818 248.5 294.229 252.735 292.642 254.88 287.922 253.293 283.689L232.878 229.25 256.279 229.25C260.801 229.25 264.467 225.584 264.467 221.062 264.467 216.54 260.801 212.875 256.279 212.875L221.219 212.875C221.115 212.873 221.01 212.873 220.906 212.875L213.033 212.875C212.929 212.873 212.825 212.873 212.721 212.875L171.939 212.875C167.418 212.875 163.752 216.54 163.752 221.062 163.752 225.584 167.418 229.25 171.939 229.25L201.062 229.25ZM253.812 157.527 139.187 157.527 139.187 141.152 253.812 141.152 253.812 157.527ZM139.187 191.587 180.125 191.587 180.125 175.212 139.187 175.212 139.187 191.587ZM233.344 188.312C233.344 197.356 226.013 204.687 216.969 204.687 207.925 204.687 200.594 197.356 200.594 188.312 200.594 179.269 207.925 171.937 216.969 171.937 226.013 171.937 233.344 179.269 233.344 188.312Z" fill="#FFFFFF" fill-rule="evenodd" fill-opacity="1" transform="matrix(1.00255 0 0 1 557 1725)"/><path d="M319.312 65.5 73.6875 65.5C69.1656 65.5 65.5 69.1657 65.5 73.6875L65.5 319.312C65.5 323.834 69.1657 327.5 73.6875 327.5L319.312 327.5C323.834 327.5 327.5 323.834 327.5 319.312L327.5 73.6875C327.5 69.1656 323.834 65.5 319.312 65.5ZM73.6875 49.125C60.122 49.125 49.125 60.122 49.125 73.6875L49.125 319.312C49.125 332.878 60.122 343.875 73.6875 343.875L319.312 343.875C332.878 343.875 343.875 332.878 343.875 319.312L343.875 73.6875C343.875 60.122 332.878 49.125 319.312 49.125L73.6875 49.125Z" fill="#FFFFFF" fill-rule="evenodd" fill-opacity="1" transform="matrix(1.00255 0 0 1 557 1725)"/></g></g></g><path d="M0 0 79.9088 72.5621" stroke="#737679" stroke-width="10.3125" stroke-linecap="butt" stroke-linejoin="miter" stroke-miterlimit="8" stroke-opacity="1" fill="none" fill-rule="evenodd" transform="matrix(1 0 0 -1 2063 1041.56)"/><path d="M0 0 57.3195 68.3804" stroke="#737679" stroke-width="10.3125" stroke-linecap="butt" stroke-linejoin="miter" stroke-miterlimit="8" stroke-opacity="1" fill="none" fill-rule="evenodd" transform="matrix(1 0 0 -1 1891 1269.38)"/><path d="M2145.29 1247.75 2025 1238" stroke="#737679" stroke-width="10.3125" stroke-linecap="butt" stroke-linejoin="miter" stroke-miterlimit="8" stroke-opacity="1" fill="none" fill-rule="evenodd"/><path d="M1860 1254.76 2047.22 1439 2361.05 1437.92 2495.25 1370.72 2548.27 1290.53 2571 1238.51 2569.92 1219 2422.74 1219 2380.53 1280.77 2236.6 1281.86 2199.81 1327.37 2005.01 1326.29 1860 1254.76Z" stroke="#737679" stroke-width="13.75" stroke-linecap="butt" stroke-linejoin="miter" stroke-miterlimit="8" stroke-opacity="1" fill="#2D3748" fill-rule="evenodd" fill-opacity="1"/><rect x="2333.5" y="1047.5" width="9.00024" height="236" stroke="#737679" stroke-width="4.58333" stroke-linecap="butt" stroke-linejoin="miter" stroke-miterlimit="8" stroke-opacity="1" fill="#737679" fill-opacity="1"/><rect x="2143.5" y="937.5" width="9" height="390" stroke="#737679" stroke-width="4.58333" stroke-linecap="butt" stroke-linejoin="miter" stroke-miterlimit="8" stroke-opacity="1" fill="#737679" fill-opacity="1"/><path d="M2301.56 1059.5 2261.5 1237.32 2383.85 1252.5 2405.5 1062.75 2301.56 1059.5Z" stroke="#FC8181" stroke-width="4.58333" stroke-linecap="butt" stroke-linejoin="miter" stroke-miterlimit="8" stroke-opacity="1" fill="#FC8181" fill-rule="evenodd" fill-opacity="1"/><path d="M2082 1014 1928 1212.99 2037.54 1253 2082 1014Z" fill="#FC8181" fill-rule="evenodd" fill-opacity="1"/><path d="M2103 1033.5 2083.5 1118.45 2210.25 1133.5 2226.5 1035.65 2103 1033.5Z" stroke="#737679" stroke-width="4.58333" stroke-linecap="butt" stroke-linejoin="miter" stroke-miterlimit="8" stroke-opacity="1" fill="#2D3748" fill-rule="evenodd" fill-opacity="1"/><path d="M2092 1169.5 2072.5 1255.3 2199.25 1270.5 2215.5 1171.67 2092 1169.5Z" stroke="#737679" stroke-width="4.58333" stroke-linecap="butt" stroke-linejoin="miter" stroke-miterlimit="8" stroke-opacity="1" fill="#2D3748" fill-rule="evenodd" fill-opacity="1"/><rect x="2152" y="937" width="54" height="31.9999" fill="#FC8181" fill-opacity="1"/></g></svg>
