<svg width="3896" height="2347" xmlns="http://www.w3.org/2000/svg" xmlns:xlink="http://www.w3.org/1999/xlink" xml:space="preserve" overflow="hidden"><defs><clipPath id="clip0"><rect x="380" y="73" width="3896" height="2347"/></clipPath><clipPath id="clip1"><rect x="545" y="124" width="396" height="393"/></clipPath><clipPath id="clip2"><rect x="545" y="124" width="396" height="393"/></clipPath><clipPath id="clip3"><rect x="545" y="124" width="396" height="393"/></clipPath><clipPath id="clip4"><rect x="2039" y="126" width="395" height="395"/></clipPath><clipPath id="clip5"><rect x="2039" y="126" width="395" height="395"/></clipPath><clipPath id="clip6"><rect x="2039" y="126" width="395" height="395"/></clipPath><clipPath id="clip7"><rect x="3536" y="116" width="395" height="396"/></clipPath><clipPath id="clip8"><rect x="3536" y="116" width="395" height="396"/></clipPath><clipPath id="clip9"><rect x="3536" y="116" width="395" height="396"/></clipPath><clipPath id="clip10"><rect x="526" y="940" width="395" height="395"/></clipPath><clipPath id="clip11"><rect x="526" y="940" width="395" height="395"/></clipPath><clipPath id="clip12"><rect x="526" y="940" width="395" height="395"/></clipPath><clipPath id="clip13"><rect x="3532" y="936" width="393" height="394"/></clipPath><clipPath id="clip14"><rect x="3532" y="936" width="393" height="394"/></clipPath><clipPath id="clip15"><rect x="3532" y="936" width="393" height="394"/></clipPath><clipPath id="clip16"><rect x="3532" y="1746" width="393" height="395"/></clipPath><clipPath id="clip17"><rect x="3532" y="1746" width="393" height="395"/></clipPath><clipPath id="clip18"><rect x="3532" y="1746" width="393" height="395"/></clipPath><clipPath id="clip19"><rect x="2053" y="1739" width="395" height="393"/></clipPath><clipPath id="clip20"><rect x="2053" y="1739" width="395" height="393"/></clipPath><clipPath id="clip21"><rect x="2053" y="1739" width="395" height="393"/></clipPath><clipPath id="clip22"><rect x="526" y="1747" width="395" height="394"/></clipPath><clipPath id="clip23"><rect x="526" y="1747" width="395" height="394"/></clipPath><clipPath id="clip24"><rect x="526" y="1747" width="395" height="394"/></clipPath></defs><g clip-path="url(#clip0)" transform="translate(-380 -73)"><path d="M464 165.668C464 122.221 499.221 87 542.668 87L943.332 87C986.779 87 1022 122.221 1022 165.668L1022 480.332C1022 523.779 986.779 559 943.332 559L542.668 559C499.221 559 464 523.779 464 480.332Z" stroke="#737679" stroke-width="10.3125" stroke-linecap="butt" stroke-linejoin="miter" stroke-miterlimit="8" stroke-opacity="1" fill="#9C9FA6" fill-rule="evenodd" fill-opacity="1"/><text fill="#FC8181" fill-opacity="1" font-family="Avenir Next,Avenir Next_MSFontService,sans-serif" font-style="normal" font-variant="normal" font-weight="400" font-stretch="normal" font-size="115" text-anchor="start" direction="ltr" writing-mode="lr-tb" unicode-bidi="normal" text-decoration="none" transform="matrix(1 0 0 1 479.534 716)">Condition</text><g clip-path="url(#clip1)"><g clip-path="url(#clip2)"><g clip-path="url(#clip3)"><path d="M196.5 106.437C216.848 106.437 233.344 89.9421 233.344 69.5937 233.344 49.2455 216.848 32.75 196.5 32.75 176.152 32.75 159.656 49.2455 159.656 69.5937 159.656 89.9421 176.152 106.437 196.5 106.437ZM216.969 69.5937C216.969 80.8983 207.804 90.0625 196.5 90.0625 185.195 90.0625 176.031 80.8983 176.031 69.5937 176.031 58.2892 185.195 49.125 196.5 49.125 207.804 49.125 216.969 58.2892 216.969 69.5937Z" fill="#FFFFFF" fill-rule="evenodd" fill-opacity="1" transform="matrix(1.00255 0 0 1 546 124)"/><path d="M98.25 171.937 117.525 171.937C123.298 177.033 130.882 180.125 139.187 180.125 140.574 180.125 141.94 180.039 143.281 179.872L143.281 212.778 143.281 212.837 143.28 236.748C143.186 237.284 142.972 238.351 142.516 240.075 141.726 243.06 140.501 246.968 138.876 251.662 136.612 258.2 133.773 265.694 130.711 273.419 126.225 278.641 123.356 285.292 122.882 292.596 119.703 300.194 116.681 307.219 114.237 312.832 112.535 316.739 111.118 319.949 110.131 322.176 107.827 327.369 106.206 333.695 107.09 340.049 108.031 346.816 111.756 352.977 118.804 357.008 129.782 363.287 143.733 360.205 151.043 349.885L163.324 332.547C163.659 332.075 163.977 331.591 164.276 331.097L167.926 325.086C179.884 320.207 188.312 308.463 188.312 294.75 188.312 293.733 188.266 292.727 188.176 291.734L198.546 274.652 232.816 331.097C233.116 331.59 233.434 332.074 233.769 332.547L246.05 349.885C253.36 360.205 267.311 363.287 278.289 357.008 285.337 352.977 289.061 346.816 290.003 340.049 290.886 333.695 289.266 327.369 286.962 322.176 285.975 319.949 284.558 316.739 282.856 312.832 279.448 305.004 274.919 294.437 270.405 283.403 265.867 272.31 261.455 261.017 258.217 251.662 256.592 246.968 255.367 243.06 254.577 240.075L254.44 239.548 254.44 214.429C263.961 207.768 270.187 196.72 270.187 184.219 270.187 179.912 269.449 175.779 268.091 171.937L294.75 171.937C308.316 171.937 319.312 160.941 319.312 147.375 319.312 133.809 308.316 122.812 294.75 122.812L160.85 122.812C155.077 117.717 147.493 114.625 139.187 114.625 130.882 114.625 123.298 117.717 117.525 122.812L98.25 122.812C84.6841 122.812 73.6875 133.809 73.6875 147.375 73.6875 160.941 84.6841 171.937 98.25 171.937ZM107.469 139.187 98.25 139.187C93.728 139.187 90.0625 142.853 90.0625 147.375 90.0625 151.897 93.728 155.562 98.25 155.562L107.469 155.562C106.796 152.946 106.437 150.202 106.437 147.375 106.437 144.548 106.796 141.804 107.469 139.187ZM159.656 212.816 159.656 172.942C167.144 166.94 171.937 157.717 171.937 147.375 171.937 144.548 171.579 141.804 170.906 139.187L294.75 139.187C299.272 139.187 302.937 142.853 302.937 147.375 302.937 151.897 299.272 155.562 294.75 155.562L256.504 155.562C250.176 150.442 242.117 147.375 233.344 147.375 212.995 147.375 196.5 163.87 196.5 184.219 196.5 204.567 212.995 221.062 233.344 221.062 234.944 221.062 236.519 220.96 238.065 220.763L238.065 240.546C238.065 241.187 238.14 241.827 238.289 242.45 238.42 242.996 238.571 243.599 238.747 244.266 239.682 247.798 241.051 252.128 242.744 257.019 246.125 266.79 250.666 278.4 255.249 289.603 259.825 300.787 264.404 311.473 267.843 319.37 269.562 323.316 270.993 326.561 271.994 328.817 273.565 332.358 274.103 335.497 273.783 337.793 273.521 339.676 272.682 341.351 270.159 342.794 266.499 344.888 261.848 343.86 259.412 340.42L247.131 323.081C247.019 322.925 246.914 322.763 246.814 322.598L205.545 254.627C204.06 252.181 201.407 250.688 198.546 250.688 195.685 250.688 193.033 252.181 191.548 254.627L180.252 273.232C174.248 266.349 165.413 262 155.562 262 154.541 262 153.531 262.047 152.534 262.138 153.168 260.387 153.775 258.677 154.349 257.019 156.042 252.128 157.41 247.798 158.345 244.266 159.07 241.528 159.369 239.867 159.499 239.038 159.602 238.521 159.655 237.985 159.655 237.437L159.655 212.875 159.656 212.816ZM129.249 319.37C129.71 318.313 130.191 317.206 130.689 316.055 135.023 321.111 140.873 324.83 147.535 326.508L137.681 340.42C135.244 343.86 130.594 344.888 126.934 342.794 124.41 341.351 123.571 339.676 123.309 337.793 122.989 335.497 123.527 332.358 125.098 328.817 126.1 326.561 127.531 323.316 129.249 319.37ZM139.187 163.75C148.231 163.75 155.562 156.419 155.562 147.375 155.562 138.331 148.231 131 139.187 131 130.144 131 122.812 138.331 122.812 147.375 122.812 156.419 130.144 163.75 139.187 163.75ZM233.344 204.687C244.648 204.687 253.812 195.523 253.812 184.219 253.812 172.914 244.648 163.75 233.344 163.75 222.039 163.75 212.875 172.914 212.875 184.219 212.875 195.523 222.039 204.687 233.344 204.687ZM155.562 311.125C164.606 311.125 171.937 303.794 171.937 294.75 171.937 285.706 164.606 278.375 155.562 278.375 146.519 278.375 139.187 285.706 139.187 294.75 139.187 303.794 146.519 311.125 155.562 311.125Z" fill="#FFFFFF" fill-rule="evenodd" fill-opacity="1" transform="matrix(1.00255 0 0 1 546 124)"/><path d="M245.062 57.3129C302.596 77.3846 343.875 132.122 343.875 196.499 343.875 241.723 323.506 282.189 291.441 309.222L301.74 321.959C337.511 291.92 360.25 246.865 360.25 196.499 360.25 124.974 314.392 64.1592 250.474 41.853L245.062 57.3129Z" fill="#FFFFFF" fill-rule="nonzero" fill-opacity="1" transform="matrix(1.00255 0 0 1 546 124)"/><path d="M224.322 341.252C215.312 342.973 206.011 343.874 196.5 343.874 189.37 343.874 182.359 343.368 175.499 342.39L173.222 358.608C180.825 359.69 188.597 360.249 196.5 360.249 207.012 360.249 217.292 359.259 227.253 357.366L224.322 341.252Z" fill="#FFFFFF" fill-rule="nonzero" fill-opacity="1" transform="matrix(1.00255 0 0 1 546 124)"/><path d="M49.125 196.499C49.125 243.802 71.4106 285.9 106.055 312.866L96.2006 325.947C57.5953 295.991 32.75 249.146 32.75 196.499 32.75 124.974 78.6082 64.1592 142.526 41.853L147.937 57.3129C90.4039 77.3846 49.125 132.122 49.125 196.499Z" fill="#FFFFFF" fill-rule="nonzero" fill-opacity="1" transform="matrix(1.00255 0 0 1 546 124)"/></g></g></g><path d="M1957 165.668C1957 122.221 1992.22 87 2035.67 87L2436.33 87C2479.78 87 2515 122.221 2515 165.668L2515 480.332C2515 523.779 2479.78 559 2436.33 559L2035.67 559C1992.22 559 1957 523.779 1957 480.332Z" stroke="#737679" stroke-width="10.3125" stroke-linecap="butt" stroke-linejoin="miter" stroke-miterlimit="8" stroke-opacity="1" fill="#9C9FA6" fill-rule="evenodd" fill-opacity="1"/><text fill="#FC8181" fill-opacity="1" font-family="Avenir Next,Avenir Next_MSFontService,sans-serif" font-style="normal" font-variant="normal" font-weight="400" font-stretch="normal" font-size="115" text-anchor="start" direction="ltr" writing-mode="lr-tb" unicode-bidi="normal" text-decoration="none" transform="matrix(1 0 0 1 1857.41 719)">Imaging Study</text><g clip-path="url(#clip4)"><g clip-path="url(#clip5)"><g clip-path="url(#clip6)"><path d="M2352.67 383.355C2362.04 365.284 2367.33 344.76 2367.33 323 2367.33 250.466 2308.53 191.667 2236 191.667 2163.47 191.667 2104.67 250.466 2104.67 323 2104.67 344.76 2109.96 365.284 2119.33 383.355L2110.66 401.27C2096.46 378.575 2088.25 351.747 2088.25 323 2088.25 241.4 2154.4 175.25 2236 175.25 2317.6 175.25 2383.75 241.4 2383.75 323 2383.75 351.747 2375.54 378.575 2361.34 401.27L2352.67 383.355Z" fill="#FFFFFF" fill-rule="nonzero" fill-opacity="1"/><path d="M2236 265.542C2213.33 265.542 2194.96 283.917 2194.96 306.583 2194.96 329.25 2213.33 347.625 2236 347.625 2258.67 347.625 2277.04 329.25 2277.04 306.583 2277.04 283.917 2258.67 265.542 2236 265.542ZM2211.38 306.583C2211.38 292.983 2222.4 281.958 2236 281.958 2249.6 281.958 2260.62 292.983 2260.62 306.583 2260.62 320.184 2249.6 331.208 2236 331.208 2222.4 331.208 2211.38 320.184 2211.38 306.583Z" fill="#FFFFFF" fill-rule="evenodd" fill-opacity="1"/><path d="M2154.4 333.286C2154.74 332.481 2155.1 331.695 2155.5 330.929 2154.46 325.711 2153.92 320.315 2153.92 314.792 2153.92 269.459 2190.67 232.708 2236 232.708 2281.33 232.708 2318.08 269.459 2318.08 314.792 2318.08 320.314 2317.54 325.711 2316.5 330.927 2316.9 331.694 2317.27 332.481 2317.61 333.286L2356.41 425.143C2365.55 446.788 2349.66 470.752 2326.16 470.752L2298.11 470.752C2297.76 470.758 2297.4 470.758 2297.05 470.752L2174.95 470.752C2174.6 470.758 2174.24 470.758 2173.89 470.752L2145.84 470.752C2122.34 470.752 2106.45 446.788 2115.59 425.143L2154.4 333.286ZM2236 249.125C2199.73 249.125 2170.33 278.525 2170.33 314.792 2170.33 315.362 2170.34 315.931 2170.36 316.498 2174.16 314.657 2178.35 313.541 2182.71 313.286 2182.98 319.023 2184.16 324.523 2186.11 329.646L2184.64 329.646C2178.04 329.646 2172.09 333.595 2169.52 339.674L2130.72 431.531C2126.14 442.353 2134.09 454.335 2145.84 454.335L2148.48 454.335C2145.07 447.148 2144.65 438.589 2148.03 430.703L2168.39 383.195C2175.51 366.596 2191.83 355.833 2209.89 355.833L2262.11 355.833C2280.17 355.833 2296.49 366.596 2303.61 383.195L2323.97 430.703C2327.35 438.589 2326.93 447.148 2323.52 454.335L2326.16 454.335C2337.91 454.335 2345.86 442.353 2341.28 431.531L2302.48 339.674C2299.92 333.595 2293.96 329.646 2287.36 329.646L2285.89 329.646C2287.84 324.523 2289.02 319.023 2289.29 313.286 2293.65 313.541 2297.84 314.657 2301.65 316.498 2301.66 315.931 2301.67 315.362 2301.67 314.792 2301.67 278.525 2272.27 249.125 2236 249.125ZM2302.41 453.338C2300.9 453.986 2299.33 454.309 2297.78 454.335L2297.35 454.335C2294.43 454.285 2291.6 453.188 2289.4 451.244 2289.1 450.982 2288.79 450.745 2288.47 450.532L2272.35 410.243C2270.67 406.034 2265.89 403.987 2261.68 405.67 2257.47 407.354 2255.42 412.131 2257.11 416.34L2272.31 454.333 2199.69 454.333 2214.89 416.34C2216.58 412.131 2214.53 407.354 2210.32 405.67 2206.11 403.987 2201.33 406.034 2199.65 410.243L2183.53 450.531C2183.21 450.744 2182.9 450.981 2182.6 451.243 2180.4 453.188 2177.57 454.285 2174.64 454.335L2174.23 454.335C2172.67 454.309 2171.1 453.986 2169.59 453.338 2163.34 450.659 2160.44 443.421 2163.12 437.171L2183.48 389.662C2188.01 379.099 2198.4 372.25 2209.89 372.25L2262.11 372.25C2273.6 372.25 2283.99 379.099 2288.52 389.662L2308.88 437.171C2311.56 443.421 2308.66 450.659 2302.41 453.338Z" fill="#FFFFFF" fill-rule="evenodd" fill-opacity="1"/><path d="M2198.05 227.631C2210.03 222.765 2222.86 220.307 2235.79 220.398 2248.73 220.49 2261.52 223.127 2273.43 228.161L2279.82 213.039C2265.92 207.166 2251 204.088 2235.91 203.982 2220.82 203.876 2205.85 206.743 2191.87 212.42L2198.05 227.631Z" fill="#FFFFFF" fill-rule="nonzero" fill-opacity="1"/></g></g></g><path d="M3450 158.668C3450 115.221 3485.22 80.0001 3528.67 80.0001L3928.33 80.0001C3971.78 80.0001 4007 115.221 4007 158.668L4007 473.332C4007 516.779 3971.78 552 3928.33 552L3528.67 552C3485.22 552 3450 516.779 3450 473.332Z" stroke="#737679" stroke-width="10.3125" stroke-linecap="butt" stroke-linejoin="miter" stroke-miterlimit="8" stroke-opacity="1" fill="#9C9FA6" fill-rule="evenodd" fill-opacity="1"/><text fill="#FC8181" fill-opacity="1" font-family="Avenir Next,Avenir Next_MSFontService,sans-serif" font-style="normal" font-variant="normal" font-weight="400" font-stretch="normal" font-size="115" text-anchor="start" direction="ltr" writing-mode="lr-tb" unicode-bidi="normal" text-decoration="none" transform="matrix(1 0 0 1 3262.9 712)">Diagnostic<tspan fill="#FC8181" fill-opacity="1" font-family="Avenir Next,Avenir Next_MSFontService,sans-serif" font-style="normal" font-variant="normal" font-weight="400" font-stretch="normal" font-size="115" text-anchor="start" direction="ltr" writing-mode="lr-tb" unicode-bidi="normal" text-decoration="none" x="586.667" y="0">Report</tspan></text><g clip-path="url(#clip7)"><g clip-path="url(#clip8)"><g clip-path="url(#clip9)"><path d="M162.299 68.142 174.532 61.1816 182.582 75.124C193.457 71.5638 205.739 75.9515 211.71 86.2203L248.834 150.055C255.671 161.812 251.648 176.825 239.849 183.588L232.884 187.58 238.442 198.322 216.494 209.504 211.494 199.84 206.018 202.979C194.218 209.742 179.111 205.694 172.274 193.937L148.291 152.698C127.254 164.798 112.746 178.309 104.965 193.759 98.4154 206.763 96.2624 221.88 99.8856 240.031 111.641 233.532 125.159 229.833 139.542 229.833 166.38 229.833 190.211 242.714 205.188 262.631L304.395 206.724 312.544 220.975 213.697 276.678C218.78 287.356 221.625 299.304 221.625 311.917 221.625 317.538 221.059 323.029 219.983 328.333L328.333 328.333C332.867 328.333 336.542 332.008 336.542 336.542 336.542 341.075 332.867 344.75 328.333 344.75L64.2884 344.75C59.8954 334.696 57.4583 323.591 57.4583 311.917 57.4583 287.329 68.2688 265.267 85.3962 250.223 79.1463 226.194 80.922 205.001 90.3023 186.375 100.032 167.057 117.438 151.517 140.038 138.507L135.15 130.102C129.897 121.07 131.055 110.114 137.225 102.456L128.514 87.3662 140.894 80.322 130.706 62.0385 152.294 50.1858 162.299 68.142ZM234.591 158.219 197.467 94.3835C195.188 90.4649 190.153 89.1154 186.219 91.3702L152.389 110.762C148.455 113.016 147.115 118.02 149.393 121.939L186.517 185.773C188.796 189.693 193.832 191.042 197.765 188.788L231.596 169.396C235.529 167.142 236.869 162.138 234.591 158.219ZM203.144 328.333C204.49 323.096 205.208 317.598 205.208 311.917 205.208 302.233 203.113 293.04 199.349 284.764L159.916 306.987 151.768 292.735 190.729 270.779C178.693 255.822 160.235 246.25 139.542 246.25 103.275 246.25 73.875 275.65 73.875 311.917 73.875 317.598 74.593 323.096 75.9396 328.333L203.144 328.333Z" fill="#FFFFFF" fill-rule="evenodd" fill-opacity="1" transform="matrix(1 0 0 1 3536 117)"/></g></g></g><path d="M445 980.501C445 937.146 480.146 902 523.502 902L924.499 902C967.854 902 1003 937.146 1003 980.501L1003 1294.5C1003 1337.85 967.854 1373 924.499 1373L523.502 1373C480.146 1373 445 1337.85 445 1294.5Z" stroke="#737679" stroke-width="10.3125" stroke-linecap="butt" stroke-linejoin="miter" stroke-miterlimit="8" stroke-opacity="1" fill="#9C9FA6" fill-rule="evenodd" fill-opacity="1"/><text fill="#FC8181" fill-opacity="1" font-family="Avenir Next,Avenir Next_MSFontService,sans-serif" font-style="normal" font-variant="normal" font-weight="400" font-stretch="normal" font-size="115" text-anchor="start" direction="ltr" writing-mode="lr-tb" unicode-bidi="normal" text-decoration="none" transform="matrix(1 0 0 1 450.792 1520)">Procedure</text><g clip-path="url(#clip10)"><g clip-path="url(#clip11)"><g clip-path="url(#clip12)"><path d="M196.5 294.75C203.102 294.75 209.246 296.703 214.389 300.063L229.262 32.75 237.438 33.2048 245.612 32.75 260.486 300.063C265.629 296.703 271.774 294.75 278.375 294.75 296.462 294.75 311.125 309.413 311.125 327.5 311.125 345.587 296.462 360.25 278.375 360.25 260.37 360.25 245.759 345.721 245.626 327.747L243.795 294.85 231.079 294.85 229.249 327.747C229.116 345.721 214.504 360.25 196.5 360.25 178.412 360.25 163.75 345.587 163.75 327.5 163.75 309.413 178.412 294.75 196.5 294.75ZM237.438 180.582 242.884 278.475 231.991 278.475 237.438 180.582ZM237.438 155.848C241.96 155.848 245.625 152.187 245.625 147.671 245.625 143.156 241.96 139.495 237.438 139.495 232.916 139.495 229.25 143.156 229.25 147.671 229.25 152.187 232.916 155.848 237.438 155.848ZM196.5 311.125C187.456 311.125 180.125 318.456 180.125 327.5 180.125 336.544 187.456 343.875 196.5 343.875 205.544 343.875 212.875 336.544 212.875 327.5 212.875 318.456 205.544 311.125 196.5 311.125ZM262 327.5C262 318.456 269.331 311.125 278.375 311.125 287.419 311.125 294.75 318.456 294.75 327.5 294.75 336.544 287.419 343.875 278.375 343.875 269.331 343.875 262 336.544 262 327.5Z" fill="#FFFFFF" fill-rule="evenodd" fill-opacity="1" transform="matrix(1.00254 0 0 1 527 941)"/><path d="M131 34.6643 118.6 42.1043 122.813 49.125C118.6 42.1043 118.589 42.1112 118.589 42.1112L118.576 42.1186 118.55 42.1345 118.49 42.1716 118.339 42.2661C118.225 42.3384 118.085 42.4295 117.921 42.5402 117.592 42.7617 117.166 43.062 116.654 43.4492 115.631 44.2237 114.271 45.3445 112.681 46.8744 109.494 49.9386 105.406 54.6219 101.255 61.4101 92.9339 75.0209 84.5376 96.8033 82.3966 130.454 81.7442 140.71 87.6767 149.352 96.1418 153.286 92.3886 156.997 90.0626 162.149 90.0626 167.844L90.0626 339.781C90.0626 351.086 99.2268 360.25 110.531 360.25 121.836 360.25 131 351.086 131 339.781L131 167.844C131 160.528 127.162 154.109 121.389 150.489 127.233 145.999 131 138.94 131 131L131 34.6643ZM98.7389 131.494C100.674 101.085 108.008 82.1592 114.625 70.9522L114.625 131C114.625 135.522 110.96 139.188 106.438 139.188 101.782 139.188 98.4859 135.471 98.7389 131.494ZM114.625 168.546 114.625 167.844C114.625 165.583 112.792 163.75 110.531 163.75 108.27 163.75 106.438 165.583 106.438 167.844L106.438 176.734 114.625 168.546ZM114.625 191.704 114.625 201.296 106.438 209.484 106.438 199.891 114.625 191.704ZM114.625 234.046 114.625 224.454 106.438 232.641 106.438 242.234 114.625 234.046ZM114.625 257.204 114.625 339.781C114.625 342.042 112.792 343.875 110.531 343.875 108.27 343.875 106.438 342.042 106.438 339.781L106.438 265.391 114.625 257.204Z" fill="#FFFFFF" fill-rule="evenodd" fill-opacity="1" transform="matrix(1.00254 0 0 1 527 941)"/></g></g></g><path d="M3450 977.335C3450 934.624 3484.62 900 3527.33 900L3929.67 900C3972.38 900 4007 934.624 4007 977.335L4007 1286.67C4007 1329.38 3972.38 1364 3929.67 1364L3527.33 1364C3484.62 1364 3450 1329.38 3450 1286.67Z" stroke="#737679" stroke-width="10.3125" stroke-linecap="butt" stroke-linejoin="miter" stroke-miterlimit="8" stroke-opacity="1" fill="#9C9FA6" fill-rule="evenodd" fill-opacity="1"/><text fill="#FC8181" fill-opacity="1" font-family="Avenir Next,Avenir Next_MSFontService,sans-serif" font-style="normal" font-variant="normal" font-weight="400" font-stretch="normal" font-size="115" text-anchor="start" direction="ltr" writing-mode="lr-tb" unicode-bidi="normal" text-decoration="none" transform="matrix(1 0 0 1 3479.69 1520)">Care Plan</text><g clip-path="url(#clip13)"><g clip-path="url(#clip14)"><g clip-path="url(#clip15)"><path d="M319.312 65.5 73.6875 65.5C69.1656 65.5 65.5 69.1657 65.5 73.6875L65.5 319.312C65.5 323.834 69.1657 327.5 73.6875 327.5L319.312 327.5C323.834 327.5 327.5 323.834 327.5 319.312L327.5 73.6875C327.5 69.1656 323.834 65.5 319.312 65.5ZM73.6875 49.125C60.122 49.125 49.125 60.122 49.125 73.6875L49.125 319.312C49.125 332.878 60.122 343.875 73.6875 343.875L319.312 343.875C332.878 343.875 343.875 332.878 343.875 319.312L343.875 73.6875C343.875 60.122 332.878 49.125 319.312 49.125L73.6875 49.125Z" fill="#FFFFFF" fill-rule="evenodd" fill-opacity="1" transform="matrix(1 0 0 1.00254 3532 936)"/><path d="M257.714 112.546C257.714 129.485 243.983 143.217 227.043 143.217 210.103 143.217 196.372 129.485 196.372 112.546 196.372 95.6071 210.103 81.875 227.043 81.875 243.983 81.875 257.714 95.6071 257.714 112.546ZM114.625 245.625 162.342 245.625 198.318 281.123 215.232 320.129C218.831 328.426 228.474 332.235 236.77 328.637 245.067 325.039 248.877 315.396 245.279 307.099L227.101 265.181C226.267 263.258 225.071 261.513 223.579 260.04L208.97 245.625 278.375 245.625C287.419 245.625 294.75 252.956 294.75 262L294.75 327.5 311.125 327.5 311.125 262C311.125 243.913 296.462 229.25 278.375 229.25L252.769 229.25C259.825 227.563 265.146 221.297 265.321 213.701 265.53 204.66 258.371 197.161 249.33 196.951 234.967 196.619 230.657 194.228 227.575 191.453 225.497 189.582 223.182 186.737 219.974 181.812 217.668 178.271 215.291 174.288 212.373 169.399L212.371 169.396 212.37 169.394C211.134 167.323 209.801 165.09 208.337 162.659L207.989 162.081C206.975 160.393 205.658 158.2 204.337 156.421 202.742 154.271 199.781 150.77 194.82 148.705 189.835 146.631 185.213 146.991 182.355 147.44 179.643 147.865 176.716 148.7 174.326 149.386 167.22 151.426 161.302 156.823 157.424 161.04 152.966 165.888 148.642 172.025 145.142 178.797 138.549 191.556 132.815 210.835 140.94 228.825 141.004 228.968 141.071 229.11 141.139 229.25L114.625 229.25C96.538 229.25 81.875 243.913 81.875 262L81.875 327.5 98.25 327.5 98.25 262C98.25 252.956 105.581 245.625 114.625 245.625ZM240.14 229.25 192.374 229.25 184.549 221.528 196.936 206.045C199.539 209.536 202.391 212.848 205.666 215.795 215.28 224.449 226.372 228.058 240.14 229.25ZM138.142 246.336 164.963 272.062 158.177 294.961C157.762 296.362 157.161 297.701 156.392 298.941L141.934 322.245C137.165 329.93 127.071 332.295 119.386 327.527 111.701 322.759 109.337 312.664 114.104 304.979L127.402 283.546 136.434 253.068 138.142 246.336Z" fill="#FFFFFF" fill-rule="evenodd" fill-opacity="1" transform="matrix(1 0 0 1.00254 3532 936)"/></g></g></g><path d="M3450 1786.67C3450 1743.22 3485.22 1708 3528.67 1708L3928.33 1708C3971.78 1708 4007 1743.22 4007 1786.67L4007 2101.33C4007 2144.78 3971.78 2180 3928.33 2180L3528.67 2180C3485.22 2180 3450 2144.78 3450 2101.33Z" stroke="#737679" stroke-width="10.3125" stroke-linecap="butt" stroke-linejoin="miter" stroke-miterlimit="8" stroke-opacity="1" fill="#9C9FA6" fill-rule="evenodd" fill-opacity="1"/><text fill="#FC8181" fill-opacity="1" font-family="Avenir Next,Avenir Next_MSFontService,sans-serif" font-style="normal" font-variant="normal" font-weight="400" font-stretch="normal" font-size="115" text-anchor="start" direction="ltr" writing-mode="lr-tb" unicode-bidi="normal" text-decoration="none" transform="matrix(1 0 0 1 3432.66 2310)">Many More</text><g clip-path="url(#clip16)"><g clip-path="url(#clip17)"><g clip-path="url(#clip18)"><path d="M196.5 343.875C277.893 343.875 343.875 277.893 343.875 196.5 343.875 115.107 277.893 49.125 196.5 49.125 115.107 49.125 49.125 115.107 49.125 196.5 49.125 277.893 115.107 343.875 196.5 343.875ZM196.5 360.25C286.937 360.25 360.25 286.937 360.25 196.5 360.25 106.063 286.937 32.75 196.5 32.75 106.063 32.75 32.75 106.063 32.75 196.5 32.75 286.937 106.063 360.25 196.5 360.25Z" fill="#FFFFFF" fill-rule="evenodd" fill-opacity="1" transform="matrix(1 0 0 1.00254 3532 1747)"/><path d="M106.437 196.5C106.437 191.978 110.103 188.312 114.625 188.312L278.375 188.312C282.897 188.312 286.562 191.978 286.562 196.5 286.562 201.022 282.897 204.687 278.375 204.687L114.625 204.687C110.103 204.687 106.437 201.022 106.437 196.5Z" fill="#FFFFFF" fill-rule="evenodd" fill-opacity="1" transform="matrix(1 0 0 1.00254 3532 1747)"/><path d="M196.5 106.437C201.022 106.437 204.687 110.103 204.687 114.625L204.687 278.375C204.687 282.897 201.022 286.562 196.5 286.562 191.978 286.562 188.312 282.897 188.312 278.375L188.312 114.625C188.312 110.103 191.978 106.437 196.5 106.437Z" fill="#FFFFFF" fill-rule="evenodd" fill-opacity="1" transform="matrix(1 0 0 1.00254 3532 1747)"/></g></g></g><path d="M1974 1778.5C1974 1735.15 2009.15 1700 2052.5 1700L2453.5 1700C2496.85 1700 2532 1735.15 2532 1778.5L2532 2092.5C2532 2135.85 2496.85 2171 2453.5 2171L2052.5 2171C2009.15 2171 1974 2135.85 1974 2092.5Z" stroke="#737679" stroke-width="10.3125" stroke-linecap="butt" stroke-linejoin="miter" stroke-miterlimit="8" stroke-opacity="1" fill="#9C9FA6" fill-rule="evenodd" fill-opacity="1"/><text fill="#FC8181" fill-opacity="1" font-family="Avenir Next,Avenir Next_MSFontService,sans-serif" font-style="normal" font-variant="normal" font-weight="400" font-stretch="normal" font-size="115" text-anchor="start" direction="ltr" writing-mode="lr-tb" unicode-bidi="normal" text-decoration="none" transform="matrix(1 0 0 1 1924.61 2294)">Observation</text><g clip-path="url(#clip19)"><g clip-path="url(#clip20)"><g clip-path="url(#clip21)"><path d="M55.8236 109.418C52.1239 113.118 52.1239 119.116 55.8236 122.816 59.5233 126.516 65.5216 126.516 69.2213 122.816L75.9244 116.113 109.414 149.603 82.6192 176.399C78.9192 180.099 78.9192 186.097 82.6192 189.797 86.3183 193.497 92.3165 193.497 96.0164 189.797L109.411 176.401 223.295 290.288C237.029 304.022 257.1 307.56 274.097 300.9L283.583 310.386C288.544 315.346 295.57 316.981 301.893 315.291L323.779 337.178C327.478 340.877 333.476 340.877 337.176 337.178 340.876 333.478 340.876 327.479 337.176 323.78L315.287 301.889C316.972 295.57 315.337 288.548 310.379 283.59L300.894 274.104C307.555 257.105 304.018 237.033 290.284 223.298L176.4 109.411 189.8 96.0107C193.5 92.3108 193.5 86.3126 189.8 82.6127 186.101 78.9131 180.102 78.9131 176.403 82.6127L149.607 109.409 116.118 75.9184 122.812 69.2237C126.512 65.5239 126.512 59.5254 122.812 55.8256 119.113 52.1259 113.114 52.1259 109.414 55.8256L55.8236 109.418ZM138.028 120.988 104.539 87.4973 87.5031 104.533 120.993 138.024 138.028 120.988ZM164.821 120.991 120.99 164.823 157.064 200.897 200.895 157.065 164.821 120.991ZM170.461 214.295 190.558 234.393 205.776 219.174C209.476 215.474 215.474 215.474 219.174 219.174 222.874 222.874 222.874 228.872 219.174 232.572L203.956 247.791 217.35 261.185 232.57 245.966C236.27 242.266 242.268 242.266 245.968 245.966 249.667 249.665 249.667 255.664 245.968 259.364L230.748 274.583 234.874 278.709C243.865 287.7 257.005 290.012 268.13 285.645L285.641 268.134C290.008 257.008 287.696 243.868 278.705 234.877L214.292 170.463 170.461 214.295ZM299.027 295.429C298.958 295.338 298.882 295.251 298.8 295.169L292.053 288.421C291.483 289.056 290.894 289.678 290.284 290.288 289.673 290.899 289.05 291.489 288.414 292.06L295.162 298.807C295.245 298.89 295.333 298.966 295.424 299.035 295.837 298.301 296.357 297.609 296.983 296.983 297.607 296.36 298.295 295.841 299.027 295.429Z" fill="#FFFFFF" fill-rule="evenodd" fill-opacity="1" transform="matrix(1.00254 0 0 1 2054 1739)"/></g></g></g><path d="M445 1787.5C445 1744.15 480.146 1709 523.502 1709L924.499 1709C967.854 1709 1003 1744.15 1003 1787.5L1003 2101.5C1003 2144.85 967.854 2180 924.499 2180L523.502 2180C480.146 2180 445 2144.85 445 2101.5Z" stroke="#737679" stroke-width="10.3125" stroke-linecap="butt" stroke-linejoin="miter" stroke-miterlimit="8" stroke-opacity="1" fill="#9C9FA6" fill-rule="evenodd" fill-opacity="1"/><text fill="#FC8181" fill-opacity="1" font-family="Avenir Next,Avenir Next_MSFontService,sans-serif" font-style="normal" font-variant="normal" font-weight="400" font-stretch="normal" font-size="115" text-anchor="start" direction="ltr" writing-mode="lr-tb" unicode-bidi="normal" text-decoration="none" transform="matrix(1 0 0 1 543.604 2308)">Patient</text><g clip-path="url(#clip22)"><g clip-path="url(#clip23)"><g clip-path="url(#clip24)"><path d="M171.937 81.875C162.894 81.875 155.562 89.2061 155.562 98.25L131 98.25C121.956 98.25 114.625 105.581 114.625 114.625L114.625 294.75C114.625 303.794 121.956 311.125 131 311.125L262 311.125C271.044 311.125 278.375 303.794 278.375 294.75L278.375 114.625C278.375 105.581 271.044 98.25 262 98.25L237.437 98.25C237.437 89.2061 230.106 81.875 221.062 81.875L171.937 81.875ZM171.937 98.25 221.062 98.25 221.062 114.625 171.937 114.625 171.937 98.25ZM201.062 229.25 180.647 283.689C179.06 287.922 181.205 292.642 185.439 294.229 189.672 295.818 194.392 293.672 195.98 289.438L206.282 261.963 227.657 261.963 237.96 289.438C239.547 293.672 244.267 295.818 248.5 294.229 252.735 292.642 254.88 287.922 253.293 283.689L232.878 229.25 256.279 229.25C260.801 229.25 264.467 225.584 264.467 221.062 264.467 216.54 260.801 212.875 256.279 212.875L221.219 212.875C221.115 212.873 221.01 212.873 220.906 212.875L213.033 212.875C212.929 212.873 212.825 212.873 212.721 212.875L171.939 212.875C167.418 212.875 163.752 216.54 163.752 221.062 163.752 225.584 167.418 229.25 171.939 229.25L201.062 229.25ZM253.812 157.527 139.187 157.527 139.187 141.152 253.812 141.152 253.812 157.527ZM139.187 191.587 180.125 191.587 180.125 175.212 139.187 175.212 139.187 191.587ZM233.344 188.312C233.344 197.356 226.013 204.687 216.969 204.687 207.925 204.687 200.594 197.356 200.594 188.312 200.594 179.269 207.925 171.937 216.969 171.937 226.013 171.937 233.344 179.269 233.344 188.312Z" fill="#FFFFFF" fill-rule="evenodd" fill-opacity="1" transform="matrix(1.00254 0 0 1 527 1748)"/><path d="M319.312 65.5 73.6875 65.5C69.1656 65.5 65.5 69.1657 65.5 73.6875L65.5 319.312C65.5 323.834 69.1657 327.5 73.6875 327.5L319.312 327.5C323.834 327.5 327.5 323.834 327.5 319.312L327.5 73.6875C327.5 69.1656 323.834 65.5 319.312 65.5ZM73.6875 49.125C60.122 49.125 49.125 60.122 49.125 73.6875L49.125 319.312C49.125 332.878 60.122 343.875 73.6875 343.875L319.312 343.875C332.878 343.875 343.875 332.878 343.875 319.312L343.875 73.6875C343.875 60.122 332.878 49.125 319.312 49.125L73.6875 49.125Z" fill="#FFFFFF" fill-rule="evenodd" fill-opacity="1" transform="matrix(1.00254 0 0 1 527 1748)"/></g></g></g><path d="M0 0 79.9088 72.5621" stroke="#737679" stroke-width="10.3125" stroke-linecap="butt" stroke-linejoin="miter" stroke-miterlimit="8" stroke-opacity="1" fill="none" fill-rule="evenodd" transform="matrix(1 0 0 -1 2067 1048.56)"/><path d="M0 0 57.3195 68.3804" stroke="#737679" stroke-width="10.3125" stroke-linecap="butt" stroke-linejoin="miter" stroke-miterlimit="8" stroke-opacity="1" fill="none" fill-rule="evenodd" transform="matrix(1 0 0 -1 1895 1275.38)"/><path d="M2149.29 1253.75 2029 1244" stroke="#737679" stroke-width="10.3125" stroke-linecap="butt" stroke-linejoin="miter" stroke-miterlimit="8" stroke-opacity="1" fill="none" fill-rule="evenodd"/><path d="M1863 1261.76 2050.48 1446 2364.76 1444.92 2499.14 1377.72 2552.24 1297.53 2575 1245.51 2573.92 1226 2426.53 1226 2384.27 1287.77 2240.13 1288.86 2203.29 1334.37 2008.22 1333.29 1863 1261.76Z" stroke="#737679" stroke-width="13.75" stroke-linecap="butt" stroke-linejoin="miter" stroke-miterlimit="8" stroke-opacity="1" fill="#2D3748" fill-rule="evenodd" fill-opacity="1"/><rect x="2337.5" y="1054.5" width="8" height="236" stroke="#737679" stroke-width="4.58333" stroke-linecap="butt" stroke-linejoin="miter" stroke-miterlimit="8" stroke-opacity="1" fill="#737679" fill-opacity="1"/><rect x="2147.5" y="943.5" width="8.00024" height="390" stroke="#737679" stroke-width="4.58333" stroke-linecap="butt" stroke-linejoin="miter" stroke-miterlimit="8" stroke-opacity="1" fill="#737679" fill-opacity="1"/><path d="M2305.56 1066.5 2265.5 1244.32 2387.85 1259.5 2409.5 1069.75 2305.56 1066.5Z" stroke="#FC8181" stroke-width="4.58333" stroke-linecap="butt" stroke-linejoin="miter" stroke-miterlimit="8" stroke-opacity="1" fill="#FC8181" fill-rule="evenodd" fill-opacity="1"/><path d="M2085 1020 1932 1219.82 2040.82 1260 2085 1020Z" fill="#FC8181" fill-rule="evenodd" fill-opacity="1"/><path d="M2107 1039.5 2087.5 1125.3 2214.25 1140.5 2230.5 1041.67 2107 1039.5Z" stroke="#737679" stroke-width="4.58333" stroke-linecap="butt" stroke-linejoin="miter" stroke-miterlimit="8" stroke-opacity="1" fill="#2D3748" fill-rule="evenodd" fill-opacity="1"/><path d="M2096 1176.5 2076.5 1261.45 2203.25 1276.5 2219.5 1178.65 2096 1176.5Z" stroke="#737679" stroke-width="4.58333" stroke-linecap="butt" stroke-linejoin="miter" stroke-miterlimit="8" stroke-opacity="1" fill="#2D3748" fill-rule="evenodd" fill-opacity="1"/><rect x="2155.5" y="943.5" width="55" height="33" stroke="#000000" stroke-width="4.58333" stroke-linecap="butt" stroke-linejoin="miter" stroke-miterlimit="8" stroke-opacity="1" fill="#000000" fill-opacity="1"/></g></svg>
